<svg height="93.475853mm" viewBox="0 0 332.12674 331.21338" width="93.730354mm" xmlns="http://www.w3.org/2000/svg" xmlns:xlink="http://www.w3.org/1999/xlink"><linearGradient id="a" gradientUnits="userSpaceOnUse" x1="-466.491674" x2="-374.494654402" y1="-452.5021274" y2="-311.507126"><stop offset="0" stop-color="#eaf4f4"/><stop offset="1" stop-color="#f2f2f2"/></linearGradient><linearGradient id="b" gradientUnits="userSpaceOnUse" x1="304.5" x2="499.5" y1="271.5" y2="553.5"><stop offset="0" stop-color="#8e908b"/><stop offset="1" stop-color="#eaece9"/></linearGradient><filter id="c" color-interpolation-filters="sRGB"><feGaussianBlur stdDeviation="1.2703906"/></filter><linearGradient id="d" gradientUnits="userSpaceOnUse" x1="342" x2="400.015999" y1="232.5" y2="372.2"><stop offset="0" stop-color="#fff"/><stop offset="1" stop-color="#fff" stop-opacity="0"/></linearGradient><linearGradient id="e" gradientTransform="matrix(.94313 -.33242 .33242 .94313 308.18 90.01)" gradientUnits="userSpaceOnUse" x1="-8" x2="-8" y1="475" y2="364"><stop offset="0" stop-color="#e2e4df"/><stop offset="1" stop-color="#e2e4df" stop-opacity="0"/></linearGradient><g transform="translate(-232.64073 -211.55013)"><circle cx="-400" cy="-378" fill="url(#a)" r="143.5" transform="scale(-1)"/><path d="m404 236.5c-80.334 0-145.5 65.166-145.5 145.5 0 40.675 16.702 77.467 43.625 103.88.0619.0631.12549.12451.1875.1875l2.9375-2.6875c-.10591-.10319-.20691-.20898-.3125-.3125-25.02-25.521-40.438-60.484-40.438-99.062 0-78.172 63.328-141.5 141.5-141.5 38.578 0 73.542 15.418 99.062 40.438 3.1172 3.1796 6.0672 6.5073 8.875 9.9688l3.1562-2.8438c-2.9228-3.4534-5.991-6.7714-9.2188-9.9375-26.408-26.923-63.2-43.625-103.88-43.625z" fill="#d3d7cf" filter="url(#c)"/><path d="m399 231.5c-80.334 0-145.5 65.166-145.5 145.5 0 40.675 16.702 77.467 43.625 103.88 26.408 26.923 63.2 43.625 103.88 43.625 80.334 0 145.5-65.166 145.5-145.5 0-40.675-16.702-77.467-43.625-103.88-26.408-26.923-63.2-43.625-103.88-43.625zm2 6c38.578 0 73.542 15.418 99.062 40.438 25.02 25.521 40.438 60.484 40.438 99.062 0 78.172-63.328 141.5-141.5 141.5-38.578 0-73.542-15.418-99.062-40.438-25.02-25.52-40.44-60.48-40.44-99.06 0-78.172 63.328-141.5 141.5-141.5z" fill="url(#b)"/><path d="m318.54 495.63c36.693 25.878 84.945 34.208 130.52 18.146 45.572-16.062 77.937-52.806 90.294-95.973l-220.81 77.827z" fill="url(#e)" opacity=".8"/><path d="m400 232.5c-76.903 0-139.66 60.502-143.31 136.5 0 0 90.613 17.662 143.33-30 54.436-49.218 143.33 30 143.33 30-3.66-76-66.45-136.5-143.35-136.5z" fill="url(#d)" opacity=".8"/></g><g transform="matrix(.81707 0 0 .81707 -208.49373 -171.00013)"><path d="m660.81 413c0 110.9-89.905 200.81-200.81 200.81s-200.81-89.905-200.81-200.81 89.905-200.81 200.81-200.81 200.81 89.905 200.81 200.81z" fill="none" stroke="#000" stroke-width="1.6949"/><g transform="translate(87.955 -267.32)"><path d="m371.39 480.39v7.5h1.3125v-7.5z"/><path d="m372.7 880.24v-7.5h-1.3125v7.5z"/></g><path d="m424.64 216.22 1.3024 7.3861 1.2926-.22791-1.3024-7.3861z"/><path d="m495.36 609.78-1.3024-7.3861-1.2926.22792 1.3024 7.3861z"/><path d="m391 225.35 2.5652 7.0477 1.2333-.4489-2.5652-7.0477z"/><path d="m529 600.65-2.5652-7.0477-1.2334.4489 2.5652 7.0477z"/><path d="m359.47 240.19 3.75 6.4952 1.1367-.65625-3.75-6.4952z"/><path d="m560.53 585.81-3.75-6.4952-1.1366.65625 3.75 6.4952 1.1367-.65625z"/><path d="m330.99 260.27 4.8209 5.7453 1.0054-.84365-4.8209-5.7453-1.0054.84366z"/><path d="m589.01 565.73-4.8209-5.7453-1.0054.84366 4.8209 5.7453 1.0054-.84365z"/><path d="m306.42 284.99 5.7453 4.8209.84365-1.0054-5.7453-4.8209-.84366 1.0054z"/><path d="m613.58 541.01-5.7453-4.8209-.84366 1.0054 5.7453 4.8209z"/><path d="m286.53 313.6 6.4952 3.75.65625-1.1367-6.4952-3.75z"/><path d="m633.47 512.4-6.4952-3.75-.65625 1.1367 6.4952 3.75z"/><path d="m271.91 345.24 7.0477 2.5652.4489-1.2334-7.0477-2.5652z"/><path d="m648.09 480.76-7.0477-2.5652-.4489 1.2334 7.0477 2.5652z"/><path d="m263 378.93 7.3861 1.3024.22791-1.2926-7.386-1.3024-.22792 1.2926z"/><path d="m657 447.07-7.3861-1.3024-.22792 1.2926 7.3861 1.3024z"/><path d="m260.07 413.66h7.5v-1.3125h-7.5z"/><path d="m659.93 412.34h-7.5v1.3125h7.5z"/><path d="m263.22 448.36 7.3861-1.3024-.22791-1.2926-7.3861 1.3024z"/><path d="m656.78 377.64-7.3861 1.3024.22792 1.2926 7.3861-1.3024z"/><path d="m272.35 482 7.0477-2.5652-.44891-1.2333-7.0477 2.5652.4489 1.2333z"/><path d="m647.65 344-7.0477 2.5652.4489 1.2334 7.0477-2.5652-.4489-1.2333z"/><path d="m287.19 513.53 6.4952-3.75-.65625-1.1366-6.4952 3.75z"/><path d="m632.81 312.47-6.4952 3.75.65625 1.1367 6.4952-3.75z"/><path d="m307.27 542.01 5.7453-4.8209-.84366-1.0054-5.7453 4.8209z"/><path d="m612.73 283.99-5.7453 4.8209.84366 1.0054 5.7453-4.8209z"/><path d="m331.99 566.58 4.8209-5.7453-1.0054-.84366-4.8209 5.7453z"/><path d="m588.01 259.42-4.8209 5.7453 1.0054.84365 4.8209-5.7453-1.0054-.84366z"/><path d="m360.6 586.47 3.75-6.4952-1.1367-.65625-3.75 6.4952z"/><path d="m559.4 239.53-3.75 6.4952 1.1367.65625 3.75-6.4952z"/><path d="m392.24 601.09 2.5652-7.0477-1.2334-.4489-2.5652 7.0477z"/><path d="m527.76 224.91-2.5652 7.0477 1.2333.44891 2.5652-7.0477-1.2333-.4489z"/><path d="m425.93 610 1.3024-7.3861-1.2926-.22792-1.3024 7.3861z"/><g fill="#2e3436" transform="translate(87.955 -267.32)"><path d="m304.68 124.61c0-.71199.06-1.34.18-1.884.12-.54399.272-.96799.456-1.272.18399-.31199.40399-.56399.66-.756.25599-.19199.49999-.31999.732-.384.23999-.064.49199-.096.756-.096 1.856.00001 2.784 1.488 2.784 4.464-.00001 1.4-.24001 2.472-.72 3.216-.47201.736-1.16 1.104-2.064 1.104-.91201 0-1.604-.372-2.076-1.116-.472-.75199-.708-1.844-.708-3.276m4.488-.024c-.00001-2.288-.56801-3.432-1.704-3.432-1.136.00001-1.704 1.156-1.704 3.468-.00001 2.336.55999 3.504 1.68 3.504.59199 0 1.028-.288 1.308-.864.27999-.57599.41999-1.468.42-2.676" transform="translate(64.152 371.01)"/><g transform="matrix(-1 0 0 -1 679.94 989.62)"><path d="m300.59 122.67h-1.884v-.756c.816-.10399 1.348-.24799 1.596-.432.248-.18399.464-.60399.648-1.26h.696v8.508h-1.056z"/><path d="m308.85 124.25c.97599.46401 1.464 1.172 1.464 2.124-.00001.77601-.26801 1.408-.804 1.896-.52801.488-1.212.732-2.052.732-.84001 0-1.528-.244-2.064-.732-.528-.496-.792-1.132-.792-1.908 0-.94399.484-1.648 1.452-2.112-.43201-.27199-.732-.53599-.9-.792-.168-.25599-.252-.57999-.252-.972 0-.66399.236-1.208.708-1.632.47999-.42399 1.096-.63599 1.848-.636.75199.00001 1.364.21201 1.836.636.47999.42401.71999.96801.72 1.632-.00001.40001-.084.72801-.252.984-.16801.25601-.47201.51601-.912.78m-.324-2.724c-.26401-.24799-.62001-.37199-1.068-.372-.44801.00001-.80801.12401-1.08.372-.26401.24001-.39601.56401-.396.972-.00001.40001.13199.72401.396.972.27199.24001.63199.36001 1.08.36.43999.00001.79599-.11999 1.068-.36.27199-.23999.40799-.55999.408-.96-.00001-.41599-.13601-.74399-.408-.984m.216 3.66c-.32801-.31199-.75601-.46799-1.284-.468-.52801.00001-.95601.15601-1.284.468-.32801.30401-.49201.70401-.492 1.2-.00001.49601.15999.9.48 1.212.32799.312.75199.468 1.272.468.53599 0 .96799-.152 1.296-.456.33599-.312.50399-.71999.504-1.224-.00001-.49599-.16401-.89599-.492-1.2"/><path d="m311.36 124.61c0-.71199.06-1.34.18-1.884.12-.54399.272-.96799.456-1.272.184-.31199.404-.56399.66-.756.256-.19199.5-.31999.732-.384.24-.064.492-.096.756-.096 1.856.00001 2.784 1.488 2.784 4.464 0 1.4-.24 2.472-.72 3.216-.472.736-1.16 1.104-2.064 1.104-.912 0-1.604-.372-2.076-1.116-.472-.75199-.708-1.844-.708-3.276m4.488-.024c0-2.288-.568-3.432-1.704-3.432-1.136.00001-1.704 1.156-1.704 3.468 0 2.336.56 3.504 1.68 3.504.592 0 1.028-.288 1.308-.864.28-.57599.42-1.468.42-2.676"/></g><g transform="matrix(.98481 -.17365 .17365 .98481 15.12 429.18)"><path d="m300.72 121.14c-.608.00001-1.028.16801-1.26.504-.224.32801-.344.76801-.36 1.32h-1.056c.04-1.832.928-2.748 2.664-2.748.80799.00001 1.44.20801 1.896.624.46399.41601.69599.98801.696 1.716-.00001.86401-.39601 1.452-1.188 1.764.51199.17601.87999.42401 1.104.744.22399.31201.33599.74001.336 1.284-.00001.80801-.26401 1.452-.792 1.932-.52001.48-1.216.72-2.088.72-1.744 0-2.68-.916-2.808-2.748h1.056c.04.61601.204 1.072.492 1.368s.72.444 1.296.444c.55199 0 .98399-.148 1.296-.444.31199-.304.46799-.72399.468-1.26-.00001-1.032-.58801-1.548-1.764-1.548l-.444.012h-.132v-.9c.76-.016 1.296-.11199 1.608-.288.31999-.17599.47999-.52399.48-1.044-.00001-.44799-.13601-.79999-.408-1.056-.26401-.26399-.628-.39599-1.092-.396"/><path d="m309.87 120.22v1.044h-3.54l-.336 2.376c.47199-.34399.99599-.51599 1.572-.516.81599.00001 1.476.26401 1.98.792.51199.52001.76799 1.2.768 2.04-.00001.89601-.27201 1.628-.816 2.196-.54401.568-1.244.852-2.1.852-.32801 0-.63201-.036-.912-.108-.27201-.072-.50001-.156-.684-.252-.17601-.104-.34001-.236-.492-.396-.144-.168-.256-.312-.336-.432-.072-.128-.144-.284-.216-.468-.064-.19199-.104-.32399-.12-.396-.016-.072-.036-.17599-.06-.312h1.056c.24799.952.82799 1.428 1.74 1.428.57599 0 1.028-.176 1.356-.528.33599-.35199.50399-.83199.504-1.44-.00001-.63199-.16801-1.128-.504-1.488-.33601-.36799-.78801-.55199-1.356-.552-.32801.00001-.60801.06-.84.18-.23201.11201-.47201.31601-.72.612h-.972l.636-4.632z"/><path d="m311.36 124.61c0-.71199.06-1.34.18-1.884.12-.54399.272-.96799.456-1.272.184-.31199.404-.56399.66-.756.256-.19199.5-.31999.732-.384.24-.064.492-.096.756-.096 1.856.00001 2.784 1.488 2.784 4.464 0 1.4-.24 2.472-.72 3.216-.472.736-1.16 1.104-2.064 1.104-.912 0-1.604-.372-2.076-1.116-.472-.75199-.708-1.844-.708-3.276m4.488-.024c0-2.288-.568-3.432-1.704-3.432-1.136.00001-1.704 1.156-1.704 3.468 0 2.336.56 3.504 1.68 3.504.592 0 1.028-.288 1.308-.864.28-.57599.42-1.468.42-2.676"/></g><g transform="matrix(-.98481 .17365 -.17365 -.98481 728.97 931.46)"><path d="m300.59 122.67h-1.884v-.756c.816-.10399 1.348-.24799 1.596-.432.248-.18399.464-.60399.648-1.26h.696v8.508h-1.056z"/><path d="m310.4 120.22v.888c-.96001 1.28-1.72 2.532-2.28 3.756-.55201 1.216-.94401 2.504-1.176 3.864h-1.128c.31999-1.4.72799-2.632 1.224-3.696.49599-1.064 1.252-2.32 2.268-3.768h-4.596v-1.044z"/><path d="m311.36 124.61c0-.71199.06-1.34.18-1.884.12-.54399.272-.96799.456-1.272.184-.31199.404-.56399.66-.756.256-.19199.5-.31999.732-.384.24-.064.492-.096.756-.096 1.856.00001 2.784 1.488 2.784 4.464 0 1.4-.24 2.472-.72 3.216-.472.736-1.16 1.104-2.064 1.104-.912 0-1.604-.372-2.076-1.116-.472-.75199-.708-1.844-.708-3.276m4.488-.024c0-2.288-.568-3.432-1.704-3.432-1.136.00001-1.704 1.156-1.704 3.468 0 2.336.56 3.504 1.68 3.504.592 0 1.028-.288 1.308-.864.28-.57599.42-1.468.42-2.676"/></g><g transform="matrix(.93969 -.34202 .34202 .93969 -23.067 494.97)"><path d="m300.73 121.14c-.60801.00001-1.028.16801-1.26.504-.224.32801-.344.76801-.36 1.32h-1.056c.04-1.832.928-2.748 2.664-2.748.80799.00001 1.44.20801 1.896.624.46399.41601.69599.98801.696 1.716-.00001.86401-.39601 1.452-1.188 1.764.51199.17601.87999.42401 1.104.744.22399.31201.33599.74001.336 1.284-.00001.80801-.26401 1.452-.792 1.932-.52001.48-1.216.72-2.088.72-1.744 0-2.68-.916-2.808-2.748h1.056c.04.61601.204 1.072.492 1.368s.71999.444 1.296.444c.55199 0 .98399-.148 1.296-.444.31199-.304.46799-.72399.468-1.26-.00001-1.032-.58801-1.548-1.764-1.548l-.444.012h-.132v-.9c.75999-.016 1.296-.11199 1.608-.288.31999-.17599.47999-.52399.48-1.044-.00001-.44799-.13601-.79999-.408-1.056-.26401-.26399-.62801-.39599-1.092-.396"/><path d="m308.1 126.69h-3.588v-1.116l3.864-5.352h.78001v5.52h1.26v.948h-1.26v2.04h-1.056v-2.04m0-.948v-3.72l-2.664 3.72z"/><path d="m311.34 124.61c-.00001-.71199.06-1.34.18-1.884.11999-.54399.27199-.96799.45599-1.272.184-.31199.404-.56399.66-.756.256-.19199.5-.31999.732-.384.24-.064.492-.096.756-.096 1.856.00001 2.784 1.488 2.784 4.464 0 1.4-.24 2.472-.72 3.216-.472.736-1.16 1.104-2.064 1.104-.912 0-1.604-.372-2.076-1.116-.472-.75199-.708-1.844-.70799-3.276m4.488-.024c-.00001-2.288-.56801-3.432-1.704-3.432-1.136.00001-1.704 1.156-1.704 3.468 0 2.336.56 3.504 1.68 3.504.592 0 1.028-.288 1.308-.864.28-.57599.42-1.468.42001-2.676"/></g><g transform="matrix(-.93969 .34202 -.34202 -.93969 767.16 865.66)"><path d="m300.59 122.67h-1.884v-.756c.816-.10399 1.348-.24799 1.596-.432.248-.18399.464-.60399.648-1.26h.696v8.508h-1.056z"/><path d="m304.68 124.85c0-.75199.068-1.412.204-1.98.136-.57599.304-1.028.504-1.356.20799-.32799.45199-.59199.732-.792.28799-.20799.55599-.34399.804-.408.25599-.064.52399-.096.804-.096.64799.00001 1.184.19601 1.608.588.43199.39201.69999.93601.804 1.632h-1.056c-.088-.40799-.25601-.72399-.504-.948-.24801-.22399-.55601-.33599-.924-.336-.60801.00001-1.076.28001-1.404.84-.32001.55201-.48401 1.348-.492 2.388.46399-.63199 1.116-.94799 1.956-.948.75999.00001 1.384.25201 1.872.756.48799.50401.73199 1.152.732 1.944-.00001.83201-.26401 1.52-.792 2.064-.52001.536-1.184.804-1.992.804-1.904 0-2.856-1.384-2.856-4.152m2.904-.48c-.52001.00001-.94401.16801-1.272.504-.32801.32801-.49201.75601-.492 1.284-.00001.54401.16399 1 .492 1.368.32799.36.73999.54 1.236.54.48799 0 .89199-.172 1.212-.516.31999-.35199.47999-.79599.48-1.332-.00001-.56799-.14801-1.016-.444-1.344-.29601-.33599-.70001-.50399-1.212-.504"/><path d="m311.36 124.61c0-.71199.06-1.34.18-1.884.12-.54399.272-.96799.456-1.272.184-.31199.404-.56399.66-.756.256-.19199.5-.31999.732-.384.24-.064.492-.096.756-.096 1.856.00001 2.784 1.488 2.784 4.464 0 1.4-.24 2.472-.72 3.216-.472.736-1.16 1.104-2.064 1.104-.912 0-1.604-.372-2.076-1.116-.472-.75199-.708-1.844-.708-3.276m4.488-.024c0-2.288-.568-3.432-1.704-3.432-1.136.00001-1.704 1.156-1.704 3.468 0 2.336.56 3.504 1.68 3.504.592 0 1.028-.288 1.308-.864.28-.57599.42-1.468.42-2.676"/></g><g transform="matrix(.86603 -.5 .5 .86603 -49.249 566.4)"><path d="m300.72 121.14c-.608.00001-1.028.16801-1.26.504-.224.32801-.344.76801-.36 1.32h-1.056c.04-1.832.928-2.748 2.664-2.748.80799.00001 1.44.20801 1.896.624.46399.41601.69599.98801.696 1.716-.00001.86401-.39601 1.452-1.188 1.764.51199.17601.87999.42401 1.104.744.22399.31201.33599.74001.336 1.284-.00001.80801-.26401 1.452-.792 1.932-.52001.48-1.216.72-2.088.72-1.744 0-2.68-.916-2.808-2.748h1.056c.04.61601.204 1.072.492 1.368s.72.444 1.296.444c.55199 0 .98399-.148 1.296-.444.31199-.304.46799-.72399.468-1.26-.00001-1.032-.58801-1.548-1.764-1.548l-.444.012h-.132v-.9c.76-.016 1.296-.11199 1.608-.288.31999-.17599.47999-.52399.48-1.044-.00001-.44799-.13601-.79999-.408-1.056-.26401-.26399-.628-.39599-1.092-.396"/><path d="m307.4 121.14c-.60801.00001-1.028.16801-1.26.504-.22401.32801-.34401.76801-.36 1.32h-1.056c.04-1.832.92799-2.748 2.664-2.748.80799.00001 1.44.20801 1.896.624.46399.41601.69599.98801.696 1.716-.00001.86401-.39601 1.452-1.188 1.764.51199.17601.87999.42401 1.104.744.22399.31201.33599.74001.336 1.284-.00001.80801-.26401 1.452-.792 1.932-.52001.48-1.216.72-2.088.72-1.744 0-2.68-.916-2.808-2.748h1.056c.04.61601.20399 1.072.492 1.368.28799.296.71999.444 1.296.444.55199 0 .98399-.148 1.296-.444.31199-.304.46799-.72399.468-1.26-.00001-1.032-.58801-1.548-1.764-1.548l-.444.012h-.132v-.9c.75999-.016 1.296-.11199 1.608-.288.31999-.17599.47999-.52399.48-1.044-.00001-.44799-.13601-.79999-.408-1.056-.26401-.26399-.62801-.39599-1.092-.396"/><path d="m311.36 124.61c0-.71199.06-1.34.18-1.884.12-.54399.272-.96799.456-1.272.184-.31199.404-.56399.66-.756.256-.19199.5-.31999.732-.384.24-.064.492-.096.756-.096 1.856.00001 2.784 1.488 2.784 4.464 0 1.4-.24 2.472-.72 3.216-.472.736-1.16 1.104-2.064 1.104-.912 0-1.604-.372-2.076-1.116-.472-.75199-.708-1.844-.708-3.276m4.488-.024c0-2.288-.568-3.432-1.704-3.432-1.136.00001-1.704 1.156-1.704 3.468 0 2.336.56 3.504 1.68 3.504.592 0 1.028-.288 1.308-.864.28-.57599.42-1.468.42-2.676"/></g><g transform="matrix(-.86603 .5 -.5 -.86603 793.34 794.23)"><path d="m300.59 122.67h-1.884v-.756c.816-.10399 1.348-.24799 1.596-.432.248-.18399.464-.60399.648-1.26h.696v8.508h-1.056z"/><path d="m309.87 120.22v1.044h-3.54l-.336 2.376c.47199-.34399.99599-.51599 1.572-.516.81599.00001 1.476.26401 1.98.792.51199.52001.76799 1.2.768 2.04-.00001.89601-.27201 1.628-.816 2.196-.54401.568-1.244.852-2.1.852-.32801 0-.63201-.036-.912-.108-.27201-.072-.50001-.156-.684-.252-.17601-.104-.34001-.236-.492-.396-.144-.168-.256-.312-.336-.432-.072-.128-.144-.284-.216-.468-.064-.19199-.104-.32399-.12-.396-.016-.072-.036-.17599-.06-.312h1.056c.24799.952.82799 1.428 1.74 1.428.57599 0 1.028-.176 1.356-.528.33599-.35199.50399-.83199.504-1.44-.00001-.63199-.16801-1.128-.504-1.488-.33601-.36799-.78801-.55199-1.356-.552-.32801.00001-.60801.06-.84.18-.23201.11201-.47201.31601-.72.612h-.972l.636-4.632z"/><path d="m311.36 124.61c0-.71199.06-1.34.18-1.884.12-.54399.272-.96799.456-1.272.184-.31199.404-.56399.66-.756.256-.19199.5-.31999.732-.384.24-.064.492-.096.756-.096 1.856.00001 2.784 1.488 2.784 4.464 0 1.4-.24 2.472-.72 3.216-.472.736-1.16 1.104-2.064 1.104-.912 0-1.604-.372-2.076-1.116-.472-.75199-.708-1.844-.708-3.276m4.488-.024c0-2.288-.568-3.432-1.704-3.432-1.136.00001-1.704 1.156-1.704 3.468 0 2.336.56 3.504 1.68 3.504.592 0 1.028-.288 1.308-.864.28-.57599.42-1.468.42-2.676"/></g><g transform="matrix(.76604 -.64279 .64279 .76604 -62.63 641.29)"><path d="m300.72 121.14c-.608.00001-1.028.16801-1.26.504-.224.32801-.344.76801-.36 1.32h-1.056c.04-1.832.928-2.748 2.664-2.748.80799.00001 1.44.20801 1.896.624.46399.41601.69599.98801.696 1.716-.00001.86401-.39601 1.452-1.188 1.764.51199.17601.87999.42401 1.104.744.22399.31201.33599.74001.336 1.284-.00001.80801-.26401 1.452-.792 1.932-.52001.48-1.216.72-2.088.72-1.744 0-2.68-.916-2.808-2.748h1.056c.04.61601.204 1.072.492 1.368s.72.444 1.296.444c.55199 0 .98399-.148 1.296-.444.31199-.304.46799-.72399.468-1.26-.00001-1.032-.58801-1.548-1.764-1.548l-.444.012h-.132v-.9c.76-.016 1.296-.11199 1.608-.288.31999-.17599.47999-.52399.48-1.044-.00001-.44799-.13601-.79999-.408-1.056-.26401-.26399-.628-.39599-1.092-.396"/><path d="m304.76 123.17c.056-1.968.99199-2.952 2.808-2.952.80799.00001 1.464.23201 1.968.696.50399.46401.75599 1.064.756 1.8-.00001 1.056-.60001 1.912-1.8 2.568l-1.2.648c-.52001.28001-.89201.55201-1.116.816-.22401.26401-.36401.576-.42.936h4.476v1.044h-5.664c.048-.936.236-1.656.564-2.16.32799-.51199.93599-1.02 1.824-1.524l1.104-.624c.76799-.43999 1.152-.99999 1.152-1.68-.00001-.45599-.16001-.83599-.48-1.14-.32001-.30399-.72001-.45599-1.2-.456-1.064.00001-1.636.67601-1.716 2.028z"/><path d="m311.36 124.61c0-.71199.06-1.34.18-1.884.12-.54399.272-.96799.456-1.272.184-.31199.404-.56399.66-.756.256-.19199.5-.31999.732-.384.24-.064.492-.096.756-.096 1.856.00001 2.784 1.488 2.784 4.464 0 1.4-.24 2.472-.72 3.216-.472.736-1.16 1.104-2.064 1.104-.912 0-1.604-.372-2.076-1.116-.472-.75199-.708-1.844-.708-3.276m4.488-.024c0-2.288-.568-3.432-1.704-3.432-1.136.00001-1.704 1.156-1.704 3.468 0 2.336.56 3.504 1.68 3.504.592 0 1.028-.288 1.308-.864.28-.57599.42-1.468.42-2.676"/></g><g transform="matrix(-.76604 .64279 -.64279 -.76604 806.72 719.35)"><path d="m300.6 122.67h-1.884v-.756c.816-.10399 1.348-.24799 1.596-.432.24799-.18399.46399-.60399.648-1.26h.696v8.508h-1.056z"/><path d="m308.1 126.69h-3.588v-1.116l3.864-5.352h.78001v5.52h1.26v.948h-1.26v2.04h-1.056v-2.04m0-.948v-3.72l-2.664 3.72z"/><path d="m311.34 124.61c-.00001-.71199.06-1.34.18-1.884.11999-.54399.27199-.96799.45599-1.272.184-.31199.404-.56399.66-.756.256-.19199.5-.31999.732-.384.24-.064.492-.096.756-.096 1.856.00001 2.784 1.488 2.784 4.464 0 1.4-.24 2.472-.72 3.216-.472.736-1.16 1.104-2.064 1.104-.912 0-1.604-.372-2.076-1.116-.472-.75199-.708-1.844-.70799-3.276m4.488-.024c-.00001-2.288-.56801-3.432-1.704-3.432-1.136.00001-1.704 1.156-1.704 3.468 0 2.336.56 3.504 1.68 3.504.592 0 1.028-.288 1.308-.864.28-.57599.42-1.468.42001-2.676"/></g><g transform="matrix(.64279 -.76604 .76604 .64279 -62.804 717.36)"><path d="m300.72 121.14c-.608.00001-1.028.16801-1.26.504-.224.32801-.344.76801-.36 1.32h-1.056c.04-1.832.928-2.748 2.664-2.748.80799.00001 1.44.20801 1.896.624.46399.41601.69599.98801.696 1.716-.00001.86401-.39601 1.452-1.188 1.764.51199.17601.87999.42401 1.104.744.22399.31201.33599.74001.336 1.284-.00001.80801-.26401 1.452-.792 1.932-.52001.48-1.216.72-2.088.72-1.744 0-2.68-.916-2.808-2.748h1.056c.04.61601.204 1.072.492 1.368s.72.444 1.296.444c.55199 0 .98399-.148 1.296-.444.31199-.304.46799-.72399.468-1.26-.00001-1.032-.58801-1.548-1.764-1.548l-.444.012h-.132v-.9c.76-.016 1.296-.11199 1.608-.288.31999-.17599.47999-.52399.48-1.044-.00001-.44799-.13601-.79999-.408-1.056-.26401-.26399-.628-.39599-1.092-.396"/><path d="m307.27 122.67h-1.884v-.756c.81599-.10399 1.348-.24799 1.596-.432.24799-.18399.46399-.60399.648-1.26h.696v8.508h-1.056z"/><path d="m311.36 124.61c0-.71199.06-1.34.18-1.884.12-.54399.272-.96799.456-1.272.184-.31199.404-.56399.66-.756.256-.19199.5-.31999.732-.384.24-.064.492-.096.756-.096 1.856.00001 2.784 1.488 2.784 4.464 0 1.4-.24 2.472-.72 3.216-.472.736-1.16 1.104-2.064 1.104-.912 0-1.604-.372-2.076-1.116-.472-.75199-.708-1.844-.708-3.276m4.488-.024c0-2.288-.568-3.432-1.704-3.432-1.136.00001-1.704 1.156-1.704 3.468 0 2.336.56 3.504 1.68 3.504.592 0 1.028-.288 1.308-.864.28-.57599.42-1.468.42-2.676"/></g><g transform="matrix(-.64279 .76604 -.76604 -.64279 806.89 643.27)"><path d="m300.59 122.67h-1.884v-.756c.816-.10399 1.348-.24799 1.596-.432.248-.18399.464-.60399.648-1.26h.696v8.508h-1.056z"/><path d="m307.4 121.14c-.60801.00001-1.028.16801-1.26.504-.22401.32801-.34401.76801-.36 1.32h-1.056c.04-1.832.92799-2.748 2.664-2.748.80799.00001 1.44.20801 1.896.624.46399.41601.69599.98801.696 1.716-.00001.86401-.39601 1.452-1.188 1.764.51199.17601.87999.42401 1.104.744.22399.31201.33599.74001.336 1.284-.00001.80801-.26401 1.452-.792 1.932-.52001.48-1.216.72-2.088.72-1.744 0-2.68-.916-2.808-2.748h1.056c.04.61601.20399 1.072.492 1.368.28799.296.71999.444 1.296.444.55199 0 .98399-.148 1.296-.444.31199-.304.46799-.72399.468-1.26-.00001-1.032-.58801-1.548-1.764-1.548l-.444.012h-.132v-.9c.75999-.016 1.296-.11199 1.608-.288.31999-.17599.47999-.52399.48-1.044-.00001-.44799-.13601-.79999-.408-1.056-.26401-.26399-.62801-.39599-1.092-.396"/><path d="m311.36 124.61c0-.71199.06-1.34.18-1.884.12-.54399.272-.96799.456-1.272.184-.31199.404-.56399.66-.756.256-.19199.5-.31999.732-.384.24-.064.492-.096.756-.096 1.856.00001 2.784 1.488 2.784 4.464 0 1.4-.24 2.472-.72 3.216-.472.736-1.16 1.104-2.064 1.104-.912 0-1.604-.372-2.076-1.116-.472-.75199-.708-1.844-.708-3.276m4.488-.024c0-2.288-.568-3.432-1.704-3.432-1.136.00001-1.704 1.156-1.704 3.468 0 2.336.56 3.504 1.68 3.504.592 0 1.028-.288 1.308-.864.28-.57599.42-1.468.42-2.676"/></g><g transform="matrix(.5 -.86603 .86603 .5 -49.765 792.31)"><path d="m300.72 121.14c-.608.00001-1.028.16801-1.26.504-.224.32801-.344.76801-.36 1.32h-1.056c.04-1.832.928-2.748 2.664-2.748.80799.00001 1.44.20801 1.896.624.46399.41601.69599.98801.696 1.716-.00001.86401-.39601 1.452-1.188 1.764.51199.17601.87999.42401 1.104.744.22399.31201.33599.74001.336 1.284-.00001.80801-.26401 1.452-.792 1.932-.52001.48-1.216.72-2.088.72-1.744 0-2.68-.916-2.808-2.748h1.056c.04.61601.204 1.072.492 1.368s.72.444 1.296.444c.55199 0 .98399-.148 1.296-.444.31199-.304.46799-.72399.468-1.26-.00001-1.032-.58801-1.548-1.764-1.548l-.444.012h-.132v-.9c.76-.016 1.296-.11199 1.608-.288.31999-.17599.47999-.52399.48-1.044-.00001-.44799-.13601-.79999-.408-1.056-.26401-.26399-.628-.39599-1.092-.396"/><path d="m304.68 124.61c0-.71199.06-1.34.18-1.884.12-.54399.272-.96799.456-1.272.18399-.31199.40399-.56399.66-.756.25599-.19199.49999-.31999.732-.384.23999-.064.49199-.096.756-.096 1.856.00001 2.784 1.488 2.784 4.464-.00001 1.4-.24001 2.472-.72 3.216-.47201.736-1.16 1.104-2.064 1.104-.91201 0-1.604-.372-2.076-1.116-.472-.75199-.708-1.844-.708-3.276m4.488-.024c-.00001-2.288-.56801-3.432-1.704-3.432-1.136.00001-1.704 1.156-1.704 3.468-.00001 2.336.55999 3.504 1.68 3.504.59199 0 1.028-.288 1.308-.864.27999-.57599.41999-1.468.42-2.676"/><path d="m311.36 124.61c0-.71199.06-1.34.18-1.884.12-.54399.272-.96799.456-1.272.184-.31199.404-.56399.66-.756.256-.19199.5-.31999.732-.384.24-.064.492-.096.756-.096 1.856.00001 2.784 1.488 2.784 4.464 0 1.4-.24 2.472-.72 3.216-.472.736-1.16 1.104-2.064 1.104-.912 0-1.604-.372-2.076-1.116-.472-.75199-.708-1.844-.708-3.276m4.488-.024c0-2.288-.568-3.432-1.704-3.432-1.136.00001-1.704 1.156-1.704 3.468 0 2.336.56 3.504 1.68 3.504.592 0 1.028-.288 1.308-.864.28-.57599.42-1.468.42-2.676"/></g><g transform="matrix(-.5 .86603 -.86603 -.5 793.86 568.33)"><path d="m300.59 122.67h-1.884v-.756c.816-.10399 1.348-.24799 1.596-.432.248-.18399.464-.60399.648-1.26h.696v8.508h-1.056z"/><path d="m304.76 123.17c.056-1.968.99199-2.952 2.808-2.952.80799.00001 1.464.23201 1.968.696.50399.46401.75599 1.064.756 1.8-.00001 1.056-.60001 1.912-1.8 2.568l-1.2.648c-.52001.28001-.89201.55201-1.116.816-.22401.26401-.36401.576-.42.936h4.476v1.044h-5.664c.048-.936.236-1.656.564-2.16.32799-.51199.93599-1.02 1.824-1.524l1.104-.624c.76799-.43999 1.152-.99999 1.152-1.68-.00001-.45599-.16001-.83599-.48-1.14-.32001-.30399-.72001-.45599-1.2-.456-1.064.00001-1.636.67601-1.716 2.028z"/><path d="m311.36 124.61c0-.71199.06-1.34.18-1.884.12-.54399.272-.96799.456-1.272.184-.31199.404-.56399.66-.756.256-.19199.5-.31999.732-.384.24-.064.492-.096.756-.096 1.856.00001 2.784 1.488 2.784 4.464 0 1.4-.24 2.472-.72 3.216-.472.736-1.16 1.104-2.064 1.104-.912 0-1.604-.372-2.076-1.116-.472-.75199-.708-1.844-.708-3.276m4.488-.024c0-2.288-.568-3.432-1.704-3.432-1.136.00001-1.704 1.156-1.704 3.468 0 2.336.56 3.504 1.68 3.504.592 0 1.028-.288 1.308-.864.28-.57599.42-1.468.42-2.676"/></g><g transform="matrix(.34202 -.93969 .93969 .34202 -23.91 863.85)"><path d="m298.09 123.17c.056-1.968.992-2.952 2.808-2.952.80799.00001 1.464.23201 1.968.696.50399.46401.75599 1.064.756 1.8-.00001 1.056-.60001 1.912-1.8 2.568l-1.2.648c-.52001.28001-.892.55201-1.116.816-.224.26401-.364.576-.42.936h4.476v1.044h-5.664c.048-.936.236-1.656.564-2.16.328-.51199.936-1.02 1.824-1.524l1.104-.624c.76799-.43999 1.152-.99999 1.152-1.68-.00001-.45599-.16001-.83599-.48-1.14-.32001-.30399-.72001-.45599-1.2-.456-1.064.00001-1.636.67601-1.716 2.028z"/><path d="m310.28 124.37c0 .75201-.068 1.416-.204 1.992-.136.56801-.308 1.016-.516 1.344-.2.328-.444.596-.732.804-.28.2-.548.332-.804.396s-.524.096-.804.096c-.648 0-1.188-.196-1.62-.588-.424-.392-.688-.936-.79199-1.632h1.056c.088.40801.256.724.50401.948.24799.224.55599.336.92399.336.608 0 1.072-.276 1.392-.828.328-.55999.496-1.36.50401-2.4-.52801.63201-1.176.94801-1.944.948-.768.00001-1.396-.25199-1.884-.756-.488-.50399-.732-1.152-.73199-1.944-.00001-.83199.25999-1.516.77999-2.052.528-.54399 1.196-.81599 2.004-.816 1.912.00001 2.868 1.384 2.868 4.152m-2.88-3.228c-.488.00001-.892.17601-1.212.528-.32001.35201-.48001.79601-.48001 1.332 0 .56801.148 1.02.44401 1.356.29599.32801.69999.49201 1.212.492.512.00001.932-.16799 1.26-.504.336-.33599.504-.76399.50401-1.284-.00001-.55199-.16401-1.008-.49201-1.368-.328-.36799-.74-.55199-1.236-.552"/><path d="m311.34 124.61c-.00001-.71199.06-1.34.18-1.884.11999-.54399.27199-.96799.45599-1.272.184-.31199.404-.56399.66-.756.256-.19199.5-.31999.732-.384.24-.064.492-.096.756-.096 1.856.00001 2.784 1.488 2.784 4.464 0 1.4-.24 2.472-.72 3.216-.472.736-1.16 1.104-2.064 1.104-.912 0-1.604-.372-2.076-1.116-.472-.75199-.708-1.844-.70799-3.276m4.488-.024c-.00001-2.288-.56801-3.432-1.704-3.432-1.136.00001-1.704 1.156-1.704 3.468 0 2.336.56 3.504 1.68 3.504.592 0 1.028-.288 1.308-.864.28-.57599.42-1.468.42001-2.676"/></g><g transform="matrix(-.34202 .93969 -.93969 -.34202 768 496.78)"><path d="m300.59 122.67h-1.884v-.756c.816-.10399 1.348-.24799 1.596-.432.248-.18399.464-.60399.648-1.26h.696v8.508h-1.056z"/><path d="m307.27 122.67h-1.884v-.756c.81599-.10399 1.348-.24799 1.596-.432.24799-.18399.46399-.60399.648-1.26h.696v8.508h-1.056z"/><path d="m311.36 124.61c0-.71199.06-1.34.18-1.884.12-.54399.272-.96799.456-1.272.184-.31199.404-.56399.66-.756.256-.19199.5-.31999.732-.384.24-.064.492-.096.756-.096 1.856.00001 2.784 1.488 2.784 4.464 0 1.4-.24 2.472-.72 3.216-.472.736-1.16 1.104-2.064 1.104-.912 0-1.604-.372-2.076-1.116-.472-.75199-.708-1.844-.708-3.276m4.488-.024c0-2.288-.568-3.432-1.704-3.432-1.136.00001-1.704 1.156-1.704 3.468 0 2.336.56 3.504 1.68 3.504.592 0 1.028-.288 1.308-.864.28-.57599.42-1.468.42-2.676"/></g><g transform="matrix(.17365 -.98481 .98481 .17365 13.976 929.82)"><path d="m298.08 123.17c.056-1.968.992-2.952 2.808-2.952.80799.00001 1.464.23201 1.968.696.50399.46401.75599 1.064.756 1.8-.00001 1.056-.60001 1.912-1.8 2.568l-1.2.648c-.52.28001-.892.55201-1.116.816-.224.26401-.364.576-.42.936h4.476v1.044h-5.664c.048-.936.236-1.656.564-2.16.328-.51199.936-1.02 1.824-1.524l1.104-.624c.76799-.43999 1.152-.99999 1.152-1.68-.00001-.45599-.16001-.83599-.48-1.14-.32001-.30399-.72001-.45599-1.2-.456-1.064.00001-1.636.67601-1.716 2.028z"/><path d="m308.85 124.25c.97599.46401 1.464 1.172 1.464 2.124-.00001.77601-.26801 1.408-.804 1.896-.52801.488-1.212.732-2.052.732-.84001 0-1.528-.244-2.064-.732-.528-.496-.792-1.132-.792-1.908 0-.94399.484-1.648 1.452-2.112-.43201-.27199-.732-.53599-.9-.792-.168-.25599-.252-.57999-.252-.972 0-.66399.236-1.208.708-1.632.47999-.42399 1.096-.63599 1.848-.636.75199.00001 1.364.21201 1.836.636.47999.42401.71999.96801.72 1.632-.00001.40001-.084.72801-.252.984-.16801.25601-.47201.51601-.912.78m-.324-2.724c-.26401-.24799-.62001-.37199-1.068-.372-.44801.00001-.80801.12401-1.08.372-.26401.24001-.39601.56401-.396.972-.00001.40001.13199.72401.396.972.27199.24001.63199.36001 1.08.36.43999.00001.79599-.11999 1.068-.36.27199-.23999.40799-.55999.408-.96-.00001-.41599-.13601-.74399-.408-.984m.216 3.66c-.32801-.31199-.75601-.46799-1.284-.468-.52801.00001-.95601.15601-1.284.468-.32801.30401-.49201.70401-.492 1.2-.00001.49601.15999.9.48 1.212.32799.312.75199.468 1.272.468.53599 0 .96799-.152 1.296-.456.33599-.312.50399-.71999.504-1.224-.00001-.49599-.16401-.89599-.492-1.2"/><path d="m311.36 124.61c0-.71199.06-1.34.18-1.884.12-.54399.272-.96799.456-1.272.184-.31199.404-.56399.66-.756.256-.19199.5-.31999.732-.384.24-.064.492-.096.756-.096 1.856.00001 2.784 1.488 2.784 4.464 0 1.4-.24 2.472-.72 3.216-.472.736-1.16 1.104-2.064 1.104-.912 0-1.604-.372-2.076-1.116-.472-.75199-.708-1.844-.708-3.276m4.488-.024c0-2.288-.568-3.432-1.704-3.432-1.136.00001-1.704 1.156-1.704 3.468 0 2.336.56 3.504 1.68 3.504.592 0 1.028-.288 1.308-.864.28-.57599.42-1.468.42-2.676"/></g><g transform="matrix(-.17365 .98481 -.98481 -.17365 730.11 430.81)"><path d="m300.59 122.67h-1.884v-.756c.816-.10399 1.348-.24799 1.596-.432.248-.18399.464-.60399.648-1.26h.696v8.508h-1.056z"/><path d="m304.68 124.61c0-.71199.06-1.34.18-1.884.12-.54399.272-.96799.456-1.272.18399-.31199.40399-.56399.66-.756.25599-.19199.49999-.31999.732-.384.23999-.064.49199-.096.756-.096 1.856.00001 2.784 1.488 2.784 4.464-.00001 1.4-.24001 2.472-.72 3.216-.47201.736-1.16 1.104-2.064 1.104-.91201 0-1.604-.372-2.076-1.116-.472-.75199-.708-1.844-.708-3.276m4.488-.024c-.00001-2.288-.56801-3.432-1.704-3.432-1.136.00001-1.704 1.156-1.704 3.468-.00001 2.336.55999 3.504 1.68 3.504.59199 0 1.028-.288 1.308-.864.27999-.57599.41999-1.468.42-2.676"/><path d="m311.36 124.61c0-.71199.06-1.34.18-1.884.12-.54399.272-.96799.456-1.272.184-.31199.404-.56399.66-.756.256-.19199.5-.31999.732-.384.24-.064.492-.096.756-.096 1.856.00001 2.784 1.488 2.784 4.464 0 1.4-.24 2.472-.72 3.216-.472.736-1.16 1.104-2.064 1.104-.912 0-1.604-.372-2.076-1.116-.472-.75199-.708-1.844-.708-3.276m4.488-.024c0-2.288-.568-3.432-1.704-3.432-1.136.00001-1.704 1.156-1.704 3.468 0 2.336.56 3.504 1.68 3.504.592 0 1.028-.288 1.308-.864.28-.57599.42-1.468.42-2.676"/></g><g transform="matrix(-.00000002 -1 1 -.00000002 62.741999 988.209998)"><path d="m298.08 123.17c.056-1.968.992-2.952 2.808-2.952.80799.00001 1.464.23201 1.968.696.50399.46401.75599 1.064.756 1.8-.00001 1.056-.60001 1.912-1.8 2.568l-1.2.648c-.52.28001-.892.55201-1.116.816-.224.26401-.364.576-.42.936h4.476v1.044h-5.664c.048-.936.236-1.656.564-2.16.328-.51199.936-1.02 1.824-1.524l1.104-.624c.76799-.43999 1.152-.99999 1.152-1.68-.00001-.45599-.16001-.83599-.48-1.14-.32001-.30399-.72001-.45599-1.2-.456-1.064.00001-1.636.67601-1.716 2.028z"/><path d="m310.4 120.22v.888c-.96001 1.28-1.72 2.532-2.28 3.756-.55201 1.216-.94401 2.504-1.176 3.864h-1.128c.31999-1.4.72799-2.632 1.224-3.696.49599-1.064 1.252-2.32 2.268-3.768h-4.596v-1.044z"/><path d="m311.36 124.61c0-.71199.06-1.34.18-1.884.12-.54399.272-.96799.456-1.272.184-.31199.404-.56399.66-.756.256-.19199.5-.31999.732-.384.24-.064.492-.096.756-.096 1.856.00001 2.784 1.488 2.784 4.464 0 1.4-.24 2.472-.72 3.216-.472.736-1.16 1.104-2.064 1.104-.912 0-1.604-.372-2.076-1.116-.472-.75199-.708-1.844-.708-3.276m4.488-.024c0-2.288-.568-3.432-1.704-3.432-1.136.00001-1.704 1.156-1.704 3.468 0 2.336.56 3.504 1.68 3.504.592 0 1.028-.288 1.308-.864.28-.57599.42-1.468.42-2.676"/></g><g transform="matrix(.00000002 1 -1 .00000002 681.350007 372.420001)"><path d="m306.94 124.37c0 .75201-.068 1.416-.204 1.992-.136.56801-.308 1.016-.516 1.344-.2.328-.444.596-.732.804-.28.2-.548.332-.804.396s-.524.096-.804.096c-.648 0-1.188-.196-1.62-.588-.424-.392-.688-.936-.792-1.632h1.056c.088.40801.256.724.504.948s.556.336.924.336c.608 0 1.072-.276 1.392-.828.328-.55999.496-1.36.504-2.4-.528.63201-1.176.94801-1.944.948-.768.00001-1.396-.25199-1.884-.756-.488-.50399-.732-1.152-.732-1.944 0-.83199.26-1.516.78-2.052.528-.54399 1.196-.81599 2.004-.816 1.912.00001 2.868 1.384 2.868 4.152m-2.88-3.228c-.488.00001-.892.17601-1.212.528-.32.35201-.48.79601-.48 1.332 0 .56801.148 1.02.444 1.356.296.32801.7.49201 1.212.492.512.00001.932-.16799 1.26-.504.336-.33599.504-.76399.504-1.284 0-.55199-.164-1.008-.492-1.368-.328-.36799-.74-.55199-1.236-.552"/><path d="m308 124.61c0-.71199.06-1.34.18-1.884.12-.54399.272-.96799.456-1.272.184-.31199.404-.56399.66-.756.256-.19199.5-.31999.732-.384.24-.064.492-.096.756-.096 1.856.00001 2.784 1.488 2.784 4.464 0 1.4-.24 2.472-.72 3.216-.472.736-1.16 1.104-2.064 1.104-.912 0-1.604-.372-2.076-1.116-.472-.75199-.708-1.844-.708-3.276m4.488-.024c0-2.288-.568-3.432-1.704-3.432-1.136.00001-1.704 1.156-1.704 3.468 0 2.336.56 3.504 1.68 3.504.592 0 1.028-.288 1.308-.864.28-.57599.42-1.468.42-2.676"/></g><g transform="matrix(-.17365 -.98481 .98481 -.17365 120.91 1037.2)"><path d="m298.08 123.17c.056-1.968.992-2.952 2.808-2.952.80799.00001 1.464.23201 1.968.696.50399.46401.75599 1.064.756 1.8-.00001 1.056-.60001 1.912-1.8 2.568l-1.2.648c-.52.28001-.892.55201-1.116.816-.224.26401-.364.576-.42.936h4.476v1.044h-5.664c.048-.936.236-1.656.564-2.16.328-.51199.936-1.02 1.824-1.524l1.104-.624c.76799-.43999 1.152-.99999 1.152-1.68-.00001-.45599-.16001-.83599-.48-1.14-.32001-.30399-.72001-.45599-1.2-.456-1.064.00001-1.636.67601-1.716 2.028z"/><path d="m304.68 124.85c0-.75199.068-1.412.204-1.98.136-.57599.304-1.028.504-1.356.20799-.32799.45199-.59199.732-.792.28799-.20799.55599-.34399.804-.408.25599-.064.52399-.096.804-.096.64799.00001 1.184.19601 1.608.588.43199.39201.69999.93601.804 1.632h-1.056c-.088-.40799-.25601-.72399-.504-.948-.24801-.22399-.55601-.33599-.924-.336-.60801.00001-1.076.28001-1.404.84-.32001.55201-.48401 1.348-.492 2.388.46399-.63199 1.116-.94799 1.956-.948.75999.00001 1.384.25201 1.872.756.48799.50401.73199 1.152.732 1.944-.00001.83201-.26401 1.52-.792 2.064-.52001.536-1.184.804-1.992.804-1.904 0-2.856-1.384-2.856-4.152m2.904-.48c-.52001.00001-.94401.16801-1.272.504-.32801.32801-.49201.75601-.492 1.284-.00001.54401.16399 1 .492 1.368.32799.36.73999.54 1.236.54.48799 0 .89199-.172 1.212-.516.31999-.35199.47999-.79599.48-1.332-.00001-.56799-.14801-1.016-.444-1.344-.29601-.33599-.70001-.50399-1.212-.504"/><path d="m311.36 124.61c0-.71199.06-1.34.18-1.884.12-.54399.272-.96799.456-1.272.184-.31199.404-.56399.66-.756.256-.19199.5-.31999.732-.384.24-.064.492-.096.756-.096 1.856.00001 2.784 1.488 2.784 4.464 0 1.4-.24 2.472-.72 3.216-.472.736-1.16 1.104-2.064 1.104-.912 0-1.604-.372-2.076-1.116-.472-.75199-.708-1.844-.708-3.276m4.488-.024c0-2.288-.568-3.432-1.704-3.432-1.136.00001-1.704 1.156-1.704 3.468 0 2.336.56 3.504 1.68 3.504.592 0 1.028-.288 1.308-.864.28-.57599.42-1.468.42-2.676"/></g><g transform="matrix(.17365 .98481 -.98481 .17365 623.18 323.39)"><path d="m305.51 124.25c.976.46401 1.464 1.172 1.464 2.124 0 .77601-.268 1.408-.804 1.896-.528.488-1.212.732-2.052.732s-1.528-.244-2.064-.732c-.528-.496-.792-1.132-.792-1.908 0-.94399.484-1.648 1.452-2.112-.432-.27199-.732-.53599-.9-.792-.168-.25599-.252-.57999-.252-.972 0-.66399.236-1.208.708-1.632.48-.42399 1.096-.63599 1.848-.636.752.00001 1.364.21201 1.836.636.48.42401.72.96801.72 1.632 0 .40001-.084.72801-.252.984-.168.25601-.472.51601-.912.78m-.324-2.724c-.264-.24799-.62-.37199-1.068-.372-.448.00001-.808.12401-1.08.372-.264.24001-.396.56401-.396.972 0 .40001.132.72401.396.972.272.24001.632.36001 1.08.36.44.00001.796-.11999 1.068-.36.272-.23999.408-.55999.408-.96 0-.41599-.136-.74399-.408-.984m.216 3.66c-.328-.31199-.756-.46799-1.284-.468-.528.00001-.956.15601-1.284.468-.328.30401-.492.70401-.492 1.2 0 .49601.16.9.48 1.212.328.312.752.468 1.272.468.536 0 .968-.152 1.296-.456.336-.312.504-.71999.504-1.224 0-.49599-.164-.89599-.492-1.2"/><path d="m308.02 124.61c0-.71199.06-1.34.18-1.884.12-.54399.272-.96799.456-1.272.184-.31199.404-.56399.66-.756.256-.19199.5-.31999.732-.384.24-.064.492-.096.756-.096 1.856.00001 2.784 1.488 2.784 4.464-.00001 1.4-.24001 2.472-.72 3.216-.472.736-1.16 1.104-2.064 1.104-.912 0-1.604-.372-2.076-1.116-.472-.75199-.708-1.844-.708-3.276m4.488-.024c-.00001-2.288-.568-3.432-1.704-3.432-1.136.00001-1.704 1.156-1.704 3.468 0 2.336.56 3.504 1.68 3.504.592 0 1.028-.288 1.308-.864.28-.57599.41999-1.468.42-2.676"/></g><g transform="matrix(-.34202 -.93969 .93969 -.34202 186.7 1075.4)"><path d="m298.08 123.17c.056-1.968.992-2.952 2.808-2.952.80799.00001 1.464.23201 1.968.696.50399.46401.75599 1.064.756 1.8-.00001 1.056-.60001 1.912-1.8 2.568l-1.2.648c-.52.28001-.892.55201-1.116.816-.224.26401-.364.576-.42.936h4.476v1.044h-5.664c.048-.936.236-1.656.564-2.16.328-.51199.936-1.02 1.824-1.524l1.104-.624c.76799-.43999 1.152-.99999 1.152-1.68-.00001-.45599-.16001-.83599-.48-1.14-.32001-.30399-.72001-.45599-1.2-.456-1.064.00001-1.636.67601-1.716 2.028z"/><path d="m309.87 120.22v1.044h-3.54l-.336 2.376c.47199-.34399.99599-.51599 1.572-.516.81599.00001 1.476.26401 1.98.792.51199.52001.76799 1.2.768 2.04-.00001.89601-.27201 1.628-.816 2.196-.54401.568-1.244.852-2.1.852-.32801 0-.63201-.036-.912-.108-.27201-.072-.50001-.156-.684-.252-.17601-.104-.34001-.236-.492-.396-.144-.168-.256-.312-.336-.432-.072-.128-.144-.284-.216-.468-.064-.19199-.104-.32399-.12-.396-.016-.072-.036-.17599-.06-.312h1.056c.24799.952.82799 1.428 1.74 1.428.57599 0 1.028-.176 1.356-.528.33599-.35199.50399-.83199.504-1.44-.00001-.63199-.16801-1.128-.504-1.488-.33601-.36799-.78801-.55199-1.356-.552-.32801.00001-.60801.06-.84.18-.23201.11201-.47201.31601-.72.612h-.972l.636-4.632z"/><path d="m311.36 124.61c0-.71199.06-1.34.18-1.884.12-.54399.272-.96799.456-1.272.184-.31199.404-.56399.66-.756.256-.19199.5-.31999.732-.384.24-.064.492-.096.756-.096 1.856.00001 2.784 1.488 2.784 4.464 0 1.4-.24 2.472-.72 3.216-.472.736-1.16 1.104-2.064 1.104-.912 0-1.604-.372-2.076-1.116-.472-.75199-.708-1.844-.708-3.276m4.488-.024c0-2.288-.568-3.432-1.704-3.432-1.136.00001-1.704 1.156-1.704 3.468 0 2.336.56 3.504 1.68 3.504.592 0 1.028-.288 1.308-.864.28-.57599.42-1.468.42-2.676"/></g><g transform="matrix(.34202 .93969 -.93969 .34202 557.39 285.2)"><path d="m307.06 120.22v.888c-.96 1.28-1.72 2.532-2.28 3.756-.552 1.216-.944 2.504-1.176 3.864h-1.128c.32-1.4.728-2.632 1.224-3.696s1.252-2.32 2.268-3.768h-4.596v-1.044z"/><path d="m308.02 124.61c0-.71199.06-1.34.18-1.884.12-.54399.272-.96799.456-1.272.184-.31199.404-.56399.66-.756.256-.19199.5-.31999.732-.384.24-.064.492-.096.756-.096 1.856.00001 2.784 1.488 2.784 4.464-.00001 1.4-.24001 2.472-.72 3.216-.472.736-1.16 1.104-2.064 1.104-.912 0-1.604-.372-2.076-1.116-.472-.75199-.708-1.844-.708-3.276m4.488-.024c-.00001-2.288-.568-3.432-1.704-3.432-1.136.00001-1.704 1.156-1.704 3.468 0 2.336.56 3.504 1.68 3.504.592 0 1.028-.288 1.308-.864.28-.57599.41999-1.468.42-2.676"/></g><g transform="matrix(-.5 -.86603 .86603 -.5 258.13 1101.6)"><path d="m298.09 123.17c.056-1.968.992-2.952 2.808-2.952.80799.00001 1.464.23201 1.968.696.50399.46401.75599 1.064.756 1.8-.00001 1.056-.60001 1.912-1.8 2.568l-1.2.648c-.52001.28001-.892.55201-1.116.816-.224.26401-.364.576-.42.936h4.476v1.044h-5.664c.048-.936.236-1.656.564-2.16.328-.51199.936-1.02 1.824-1.524l1.104-.624c.76799-.43999 1.152-.99999 1.152-1.68-.00001-.45599-.16001-.83599-.48-1.14-.32001-.30399-.72001-.45599-1.2-.456-1.064.00001-1.636.67601-1.716 2.028z"/><path d="m308.1 126.69h-3.588v-1.116l3.864-5.352h.78001v5.52h1.26v.948h-1.26v2.04h-1.056v-2.04m0-.948v-3.72l-2.664 3.72z"/><path d="m311.34 124.61c-.00001-.71199.06-1.34.18-1.884.11999-.54399.27199-.96799.45599-1.272.184-.31199.404-.56399.66-.756.256-.19199.5-.31999.732-.384.24-.064.492-.096.756-.096 1.856.00001 2.784 1.488 2.784 4.464 0 1.4-.24 2.472-.72 3.216-.472.736-1.16 1.104-2.064 1.104-.912 0-1.604-.372-2.076-1.116-.472-.75199-.708-1.844-.70799-3.276m4.488-.024c-.00001-2.288-.56801-3.432-1.704-3.432-1.136.00001-1.704 1.156-1.704 3.468 0 2.336.56 3.504 1.68 3.504.592 0 1.028-.288 1.308-.864.28-.57599.42-1.468.42001-2.676"/></g><g transform="matrix(.5 .86603 -.86603 .5 485.96 259.02)"><path d="m301.34 124.85c0-.75199.068-1.412.204-1.98.136-.57599.304-1.028.504-1.356.208-.32799.452-.59199.732-.792.288-.20799.556-.34399.804-.408.256-.064.524-.096.804-.096.648.00001 1.184.19601 1.608.588.432.39201.7.93601.804 1.632h-1.056c-.088-.40799-.256-.72399-.504-.948-.248-.22399-.556-.33599-.924-.336-.608.00001-1.076.28001-1.404.84-.32.55201-.484 1.348-.492 2.388.464-.63199 1.116-.94799 1.956-.948.76.00001 1.384.25201 1.872.756.488.50401.732 1.152.732 1.944 0 .83201-.264 1.52-.792 2.064-.52.536-1.184.804-1.992.804-1.904 0-2.856-1.384-2.856-4.152m2.904-.48c-.52.00001-.944.16801-1.272.504-.328.32801-.492.75601-.492 1.284 0 .54401.164 1 .492 1.368.328.36.74.54 1.236.54.488 0 .892-.172 1.212-.516.32-.35199.48-.79599.48-1.332 0-.56799-.148-1.016-.444-1.344-.296-.33599-.7-.50399-1.212-.504"/><path d="m308.02 124.61c0-.71199.06-1.34.18-1.884.12-.54399.272-.96799.456-1.272.184-.31199.404-.56399.66-.756.256-.19199.5-.31999.732-.384.24-.064.492-.096.756-.096 1.856.00001 2.784 1.488 2.784 4.464-.00001 1.4-.24001 2.472-.72 3.216-.472.736-1.16 1.104-2.064 1.104-.912 0-1.604-.372-2.076-1.116-.472-.75199-.708-1.844-.708-3.276m4.488-.024c-.00001-2.288-.568-3.432-1.704-3.432-1.136.00001-1.704 1.156-1.704 3.468 0 2.336.56 3.504 1.68 3.504.592 0 1.028-.288 1.308-.864.28-.57599.41999-1.468.42-2.676"/></g><g transform="matrix(-.64279 -.76604 .76604 -.64279 333.02 1115)"><path d="m298.08 123.17c.056-1.968.992-2.952 2.808-2.952.80799.00001 1.464.23201 1.968.696.50399.46401.75599 1.064.756 1.8-.00001 1.056-.60001 1.912-1.8 2.568l-1.2.648c-.52.28001-.892.55201-1.116.816-.224.26401-.364.576-.42.936h4.476v1.044h-5.664c.048-.936.236-1.656.564-2.16.328-.51199.936-1.02 1.824-1.524l1.104-.624c.76799-.43999 1.152-.99999 1.152-1.68-.00001-.45599-.16001-.83599-.48-1.14-.32001-.30399-.72001-.45599-1.2-.456-1.064.00001-1.636.67601-1.716 2.028z"/><path d="m307.4 121.14c-.60801.00001-1.028.16801-1.26.504-.22401.32801-.34401.76801-.36 1.32h-1.056c.04-1.832.92799-2.748 2.664-2.748.80799.00001 1.44.20801 1.896.624.46399.41601.69599.98801.696 1.716-.00001.86401-.39601 1.452-1.188 1.764.51199.17601.87999.42401 1.104.744.22399.31201.33599.74001.336 1.284-.00001.80801-.26401 1.452-.792 1.932-.52001.48-1.216.72-2.088.72-1.744 0-2.68-.916-2.808-2.748h1.056c.04.61601.20399 1.072.492 1.368.28799.296.71999.444 1.296.444.55199 0 .98399-.148 1.296-.444.31199-.304.46799-.72399.468-1.26-.00001-1.032-.58801-1.548-1.764-1.548l-.444.012h-.132v-.9c.75999-.016 1.296-.11199 1.608-.288.31999-.17599.47999-.52399.48-1.044-.00001-.44799-.13601-.79999-.408-1.056-.26401-.26399-.62801-.39599-1.092-.396"/><path d="m311.36 124.61c0-.71199.06-1.34.18-1.884.12-.54399.272-.96799.456-1.272.184-.31199.404-.56399.66-.756.256-.19199.5-.31999.732-.384.24-.064.492-.096.756-.096 1.856.00001 2.784 1.488 2.784 4.464 0 1.4-.24 2.472-.72 3.216-.472.736-1.16 1.104-2.064 1.104-.912 0-1.604-.372-2.076-1.116-.472-.75199-.708-1.844-.708-3.276m4.488-.024c0-2.288-.568-3.432-1.704-3.432-1.136.00001-1.704 1.156-1.704 3.468 0 2.336.56 3.504 1.68 3.504.592 0 1.028-.288 1.308-.864.28-.57599.42-1.468.42-2.676"/></g><g transform="matrix(.64279 .76604 -.76604 .64279 411.07 245.64)"><path d="m306.53 120.22v1.044h-3.54l-.336 2.376c.472-.34399.996-.51599 1.572-.516.816.00001 1.476.26401 1.98.792.512.52001.768 1.2.768 2.04 0 .89601-.272 1.628-.816 2.196s-1.244.852-2.1.852c-.328 0-.632-.036-.912-.108-.272-.072-.5-.156-.684-.252-.176-.104-.34-.236-.492-.396-.144-.168-.256-.312-.336-.432-.072-.128-.144-.284-.216-.468-.064-.19199-.104-.32399-.12-.396-.016-.072-.036-.17599-.06-.312h1.056c.248.952.828 1.428 1.74 1.428.576 0 1.028-.176 1.356-.528.336-.35199.504-.83199.504-1.44 0-.63199-.168-1.128-.504-1.488-.336-.36799-.788-.55199-1.356-.552-.328.00001-.608.06-.84.18-.232.11201-.472.31601-.72.612h-.972l.636-4.632z"/><path d="m308.02 124.61c0-.71199.06-1.34.18-1.884.12-.54399.272-.96799.456-1.272.184-.31199.404-.56399.66-.756.256-.19199.5-.31999.732-.384.24-.064.492-.096.756-.096 1.856.00001 2.784 1.488 2.784 4.464-.00001 1.4-.24001 2.472-.72 3.216-.472.736-1.16 1.104-2.064 1.104-.912 0-1.604-.372-2.076-1.116-.472-.75199-.708-1.844-.708-3.276m4.488-.024c-.00001-2.288-.568-3.432-1.704-3.432-1.136.00001-1.704 1.156-1.704 3.468 0 2.336.56 3.504 1.68 3.504.592 0 1.028-.288 1.308-.864.28-.57599.41999-1.468.42-2.676"/></g><g transform="matrix(-.76604 -.64279 .64279 -.76604 409.09 1115.2)"><path d="m298.08 123.17c.056-1.968.992-2.952 2.808-2.952.80799.00001 1.464.23201 1.968.696.50399.46401.75599 1.064.756 1.8-.00001 1.056-.60001 1.912-1.8 2.568l-1.2.648c-.52.28001-.892.55201-1.116.816-.224.26401-.364.576-.42.936h4.476v1.044h-5.664c.048-.936.236-1.656.564-2.16.328-.51199.936-1.02 1.824-1.524l1.104-.624c.76799-.43999 1.152-.99999 1.152-1.68-.00001-.45599-.16001-.83599-.48-1.14-.32001-.30399-.72001-.45599-1.2-.456-1.064.00001-1.636.67601-1.716 2.028z"/><path d="m304.76 123.17c.056-1.968.99199-2.952 2.808-2.952.80799.00001 1.464.23201 1.968.696.50399.46401.75599 1.064.756 1.8-.00001 1.056-.60001 1.912-1.8 2.568l-1.2.648c-.52001.28001-.89201.55201-1.116.816-.22401.26401-.36401.576-.42.936h4.476v1.044h-5.664c.048-.936.236-1.656.564-2.16.32799-.51199.93599-1.02 1.824-1.524l1.104-.624c.76799-.43999 1.152-.99999 1.152-1.68-.00001-.45599-.16001-.83599-.48-1.14-.32001-.30399-.72001-.45599-1.2-.456-1.064.00001-1.636.67601-1.716 2.028z"/><path d="m311.36 124.61c0-.71199.06-1.34.18-1.884.12-.54399.272-.96799.456-1.272.184-.31199.404-.56399.66-.756.256-.19199.5-.31999.732-.384.24-.064.492-.096.756-.096 1.856.00001 2.784 1.488 2.784 4.464 0 1.4-.24 2.472-.72 3.216-.472.736-1.16 1.104-2.064 1.104-.912 0-1.604-.372-2.076-1.116-.472-.75199-.708-1.844-.708-3.276m4.488-.024c0-2.288-.568-3.432-1.704-3.432-1.136.00001-1.704 1.156-1.704 3.468 0 2.336.56 3.504 1.68 3.504.592 0 1.028-.288 1.308-.864.28-.57599.42-1.468.42-2.676"/></g><g transform="matrix(.76604 .64279 -.64279 .76604 335 245.47)"><path d="m304.76 126.69h-3.588v-1.116l3.864-5.352h.78v5.52h1.26v.948h-1.26v2.04h-1.056zm0-.948v-3.72l-2.664 3.72z"/><path d="m308 124.61c0-.71199.06-1.34.18-1.884.12-.54399.272-.96799.456-1.272.184-.31199.404-.56399.66-.756.256-.19199.5-.31999.732-.384.24-.064.492-.096.756-.096 1.856.00001 2.784 1.488 2.784 4.464 0 1.4-.24 2.472-.72 3.216-.472.736-1.16 1.104-2.064 1.104-.912 0-1.604-.372-2.076-1.116-.472-.75199-.708-1.844-.708-3.276m4.488-.024c0-2.288-.568-3.432-1.704-3.432-1.136.00001-1.704 1.156-1.704 3.468 0 2.336.56 3.504 1.68 3.504.592 0 1.028-.288 1.308-.864.28-.57599.42-1.468.42-2.676"/></g><g transform="matrix(-.86603 -.5 .5 -.86603 484.04 1102.1)"><path d="m298.08 123.17c.056-1.968.992-2.952 2.808-2.952.80799.00001 1.464.23201 1.968.696.50399.46401.75599 1.064.756 1.8-.00001 1.056-.60001 1.912-1.8 2.568l-1.2.648c-.52.28001-.892.55201-1.116.816-.224.26401-.364.576-.42.936h4.476v1.044h-5.664c.048-.936.236-1.656.564-2.16.328-.51199.936-1.02 1.824-1.524l1.104-.624c.76799-.43999 1.152-.99999 1.152-1.68-.00001-.45599-.16001-.83599-.48-1.14-.32001-.30399-.72001-.45599-1.2-.456-1.064.00001-1.636.67601-1.716 2.028z"/><path d="m307.27 122.67h-1.884v-.756c.81599-.10399 1.348-.24799 1.596-.432.24799-.18399.46399-.60399.648-1.26h.696v8.508h-1.056z"/><path d="m311.36 124.61c0-.71199.06-1.34.18-1.884.12-.54399.272-.96799.456-1.272.184-.31199.404-.56399.66-.756.256-.19199.5-.31999.732-.384.24-.064.492-.096.756-.096 1.856.00001 2.784 1.488 2.784 4.464 0 1.4-.24 2.472-.72 3.216-.472.736-1.16 1.104-2.064 1.104-.912 0-1.604-.372-2.076-1.116-.472-.75199-.708-1.844-.708-3.276m4.488-.024c0-2.288-.568-3.432-1.704-3.432-1.136.00001-1.704 1.156-1.704 3.468 0 2.336.56 3.504 1.68 3.504.592 0 1.028-.288 1.308-.864.28-.57599.42-1.468.42-2.676"/></g><g transform="matrix(.86603 .5 -.5 .86603 260.05 258.51)"><path d="m304.06 121.14c-.608.00001-1.028.16801-1.26.504-.224.32801-.344.76801-.36 1.32h-1.056c.04-1.832.928-2.748 2.664-2.748.808.00001 1.44.20801 1.896.624.464.41601.696.98801.696 1.716 0 .86401-.396 1.452-1.188 1.764.512.17601.88.42401 1.104.744.224.31201.336.74001.336 1.284 0 .80801-.264 1.452-.792 1.932-.52.48-1.216.72-2.088.72-1.744 0-2.68-.916-2.808-2.748h1.056c.04.61601.204 1.072.492 1.368s.72.444 1.296.444c.552 0 .984-.148 1.296-.444.312-.304.468-.72399.468-1.26 0-1.032-.588-1.548-1.764-1.548l-.444.012h-.132v-.9c.76-.016 1.296-.11199 1.608-.288.32-.17599.48-.52399.48-1.044 0-.44799-.136-.79999-.408-1.056-.264-.26399-.628-.39599-1.092-.396"/><path d="m308.02 124.61c0-.71199.06-1.34.18-1.884.12-.54399.272-.96799.456-1.272.184-.31199.404-.56399.66-.756.256-.19199.5-.31999.732-.384.24-.064.492-.096.756-.096 1.856.00001 2.784 1.488 2.784 4.464-.00001 1.4-.24001 2.472-.72 3.216-.472.736-1.16 1.104-2.064 1.104-.912 0-1.604-.372-2.076-1.116-.472-.75199-.708-1.844-.708-3.276m4.488-.024c-.00001-2.288-.568-3.432-1.704-3.432-1.136.00001-1.704 1.156-1.704 3.468 0 2.336.56 3.504 1.68 3.504.592 0 1.028-.288 1.308-.864.28-.57599.41999-1.468.42-2.676"/></g><g transform="matrix(-.93969 -.34202 .34202 -.93969 555.58 1076.3)"><path d="m298.08 123.17c.056-1.968.992-2.952 2.808-2.952.80799.00001 1.464.23201 1.968.696.50399.46401.75599 1.064.756 1.8-.00001 1.056-.60001 1.912-1.8 2.568l-1.2.648c-.52.28001-.892.55201-1.116.816-.224.26401-.364.576-.42.936h4.476v1.044h-5.664c.048-.936.236-1.656.564-2.16.328-.51199.936-1.02 1.824-1.524l1.104-.624c.76799-.43999 1.152-.99999 1.152-1.68-.00001-.45599-.16001-.83599-.48-1.14-.32001-.30399-.72001-.45599-1.2-.456-1.064.00001-1.636.67601-1.716 2.028z"/><path d="m304.68 124.61c0-.71199.06-1.34.18-1.884.12-.54399.272-.96799.456-1.272.18399-.31199.40399-.56399.66-.756.25599-.19199.49999-.31999.732-.384.23999-.064.49199-.096.756-.096 1.856.00001 2.784 1.488 2.784 4.464-.00001 1.4-.24001 2.472-.72 3.216-.47201.736-1.16 1.104-2.064 1.104-.91201 0-1.604-.372-2.076-1.116-.472-.75199-.708-1.844-.708-3.276m4.488-.024c-.00001-2.288-.56801-3.432-1.704-3.432-1.136.00001-1.704 1.156-1.704 3.468-.00001 2.336.55999 3.504 1.68 3.504.59199 0 1.028-.288 1.308-.864.27999-.57599.41999-1.468.42-2.676"/><path d="m311.36 124.61c0-.71199.06-1.34.18-1.884.12-.54399.272-.96799.456-1.272.184-.31199.404-.56399.66-.756.256-.19199.5-.31999.732-.384.24-.064.492-.096.756-.096 1.856.00001 2.784 1.488 2.784 4.464 0 1.4-.24 2.472-.72 3.216-.472.736-1.16 1.104-2.064 1.104-.912 0-1.604-.372-2.076-1.116-.472-.75199-.708-1.844-.708-3.276m4.488-.024c0-2.288-.568-3.432-1.704-3.432-1.136.00001-1.704 1.156-1.704 3.468 0 2.336.56 3.504 1.68 3.504.592 0 1.028-.288 1.308-.864.28-.57599.42-1.468.42-2.676"/></g><g transform="matrix(.93969 .34202 -.34202 .93969 188.51 284.36)"><path d="m301.42 123.17c.056-1.968.992-2.952 2.808-2.952.808.00001 1.464.23201 1.968.696.504.46401.756 1.064.756 1.8 0 1.056-.6 1.912-1.8 2.568l-1.2.648c-.52.28001-.892.55201-1.116.816-.224.26401-.364.576-.42.936h4.476v1.044h-5.664c.048-.936.236-1.656.564-2.16.328-.51199.936-1.02 1.824-1.524l1.104-.624c.768-.43999 1.152-.99999 1.152-1.68 0-.45599-.16-.83599-.48-1.14-.32-.30399-.72-.45599-1.2-.456-1.064.00001-1.636.67601-1.716 2.028z"/><path d="m308.02 124.61c0-.71199.06-1.34.18-1.884.12-.54399.272-.96799.456-1.272.184-.31199.404-.56399.66-.756.256-.19199.5-.31999.732-.384.24-.064.492-.096.756-.096 1.856.00001 2.784 1.488 2.784 4.464-.00001 1.4-.24001 2.472-.72 3.216-.472.736-1.16 1.104-2.064 1.104-.912 0-1.604-.372-2.076-1.116-.472-.75199-.708-1.844-.708-3.276m4.488-.024c-.00001-2.288-.568-3.432-1.704-3.432-1.136.00001-1.704 1.156-1.704 3.468 0 2.336.56 3.504 1.68 3.504.592 0 1.028-.288 1.308-.864.28-.57599.41999-1.468.42-2.676"/></g><g transform="matrix(-.98481 -.17365 .17365 -.98481 621.55 1038.4)"><path d="m300.6 122.67h-1.884v-.756c.816-.10399 1.348-.24799 1.596-.432.24799-.18399.46399-.60399.648-1.26h.696v8.508h-1.056z"/><path d="m310.28 124.37c0 .75201-.068 1.416-.204 1.992-.136.56801-.308 1.016-.516 1.344-.2.328-.444.596-.732.804-.28.2-.548.332-.804.396s-.524.096-.804.096c-.648 0-1.188-.196-1.62-.588-.424-.392-.688-.936-.79199-1.632h1.056c.088.40801.256.724.50401.948.24799.224.55599.336.92399.336.608 0 1.072-.276 1.392-.828.328-.55999.496-1.36.50401-2.4-.52801.63201-1.176.94801-1.944.948-.768.00001-1.396-.25199-1.884-.756-.488-.50399-.732-1.152-.73199-1.944-.00001-.83199.25999-1.516.77999-2.052.528-.54399 1.196-.81599 2.004-.816 1.912.00001 2.868 1.384 2.868 4.152m-2.88-3.228c-.488.00001-.892.17601-1.212.528-.32001.35201-.48001.79601-.48001 1.332 0 .56801.148 1.02.44401 1.356.29599.32801.69999.49201 1.212.492.512.00001.932-.16799 1.26-.504.336-.33599.504-.76399.50401-1.284-.00001-.55199-.16401-1.008-.49201-1.368-.328-.36799-.74-.55199-1.236-.552"/><path d="m311.34 124.61c-.00001-.71199.06-1.34.18-1.884.11999-.54399.27199-.96799.45599-1.272.184-.31199.404-.56399.66-.756.256-.19199.5-.31999.732-.384.24-.064.492-.096.756-.096 1.856.00001 2.784 1.488 2.784 4.464 0 1.4-.24 2.472-.72 3.216-.472.736-1.16 1.104-2.064 1.104-.912 0-1.604-.372-2.076-1.116-.472-.75199-.708-1.844-.70799-3.276m4.488-.024c-.00001-2.288-.56801-3.432-1.704-3.432-1.136.00001-1.704 1.156-1.704 3.468 0 2.336.56 3.504 1.68 3.504.592 0 1.028-.288 1.308-.864.28-.57599.42-1.468.42001-2.676"/></g><g transform="matrix(.98481 .17365 -.17365 .98481 122.54 322.25)"><path d="m303.93 122.67h-1.884v-.756c.816-.10399 1.348-.24799 1.596-.432.248-.18399.464-.60399.648-1.26h.696v8.508h-1.056z"/><path d="m308.02 124.61c0-.71199.06-1.34.18-1.884.12-.54399.272-.96799.456-1.272.184-.31199.404-.56399.66-.756.256-.19199.5-.31999.732-.384.24-.064.492-.096.756-.096 1.856.00001 2.784 1.488 2.784 4.464-.00001 1.4-.24001 2.472-.72 3.216-.472.736-1.16 1.104-2.064 1.104-.912 0-1.604-.372-2.076-1.116-.472-.75199-.708-1.844-.708-3.276m4.488-.024c-.00001-2.288-.568-3.432-1.704-3.432-1.136.00001-1.704 1.156-1.704 3.468 0 2.336.56 3.504 1.68 3.504.592 0 1.028-.288 1.308-.864.28-.57599.41999-1.468.42-2.676"/></g></g><path d="m494.07 216-1.3024 7.386 1.2926.22792 1.3024-7.3861-1.2926-.22791z"/><path d="m653.31 413c0 106.76-86.547 193.31-193.31 193.31s-193.31-86.547-193.31-193.31 86.547-193.31 193.31-193.31 193.31 86.547 193.31 193.31z" fill="none" stroke="#000" stroke-width="1.6949"/><g transform="matrix(.99939 -.0349 .0349 .99939 64.439 -253.92)"><path d="m371.39 480.39v7.5h1.3125v-7.5z"/><path d="m372.7 880.24v-7.5h-1.3125v7.5z"/></g><g transform="matrix(.99756 -.069756 .069756 .99756 41.405 -239.71)"><path d="m371.39 480.39v7.5h1.3125v-7.5z"/><path d="m372.7 880.24v-7.5h-1.3125v7.5z"/></g><g transform="matrix(.99452 -.10453 .10453 .99452 18.881 -224.7)"><path d="m371.39 480.39v7.5h1.3125v-7.5z"/><path d="m372.7 880.24v-7.5h-1.3125v7.5z"/></g><g transform="matrix(.99027 -.13917 .13917 .99027 -3.1062 -208.92)"><path d="m371.39 480.39v7.5h1.3125v-7.5z"/><path d="m372.7 880.24v-7.5h-1.3125v7.5z"/></g><g transform="matrix(.97815 -.20791 .20791 .97815 -45.361 -175.1)"><path d="m371.39 480.39v7.5h1.3125v-7.5z"/><path d="m372.7 880.24v-7.5h-1.3125v7.5z"/></g><g transform="matrix(.9703 -.24192 .24192 .9703 -65.577 -157.1)"><path d="m371.39 480.39v7.5h1.3125v-7.5z"/><path d="m372.7 880.24v-7.5h-1.3125v7.5z"/></g><g transform="matrix(.96126 -.27564 .27564 .96126 -85.153 -138.41)"><path d="m371.39 480.39v7.5h1.3125v-7.5z"/><path d="m372.7 880.24v-7.5h-1.3125v7.5z"/></g><g transform="matrix(.95106 -.30902 .30902 .95106 -104.07 -119.05)"><path d="m371.39 480.39v7.5h1.3125v-7.5z"/><path d="m372.7 880.24v-7.5h-1.3125v7.5z"/></g><g transform="matrix(.92718 -.37461 .37461 .92718 -139.81 -78.409)"><path d="m371.39 480.39v7.5h1.3125v-7.5z"/><path d="m372.7 880.24v-7.5h-1.3125v7.5z"/></g><g transform="matrix(.91355 -.40674 .40674 .91355 -156.59 -57.176)"><path d="m371.39 480.39v7.5h1.3125v-7.5z"/><path d="m372.7 880.24v-7.5h-1.3125v7.5z"/></g><g transform="matrix(.89879 -.43837 .43837 .89879 -172.62 -35.371)"><path d="m371.39 480.39v7.5h1.3125v-7.5z"/><path d="m372.7 880.24v-7.5h-1.3125v7.5z"/></g><g transform="matrix(.88295 -.46947 .46947 .88295 -187.89 -13.02)"><path d="m371.39 480.39v7.5h1.3125v-7.5z"/><path d="m372.7 880.24v-7.5h-1.3125v7.5z"/></g><g transform="matrix(.84805 -.52992 .52992 .84805 -216.03 33.212)"><path d="m371.39 480.39v7.5h1.3125v-7.5z"/><path d="m372.7 880.24v-7.5h-1.3125v7.5z"/></g><g transform="matrix(.82903968 -.55918978 .55918978 .82903968 -228.869915 57.036132)"><path d="m371.39 480.39v7.5h1.3125v-7.5z"/><path d="m372.7 880.24v-7.5h-1.3125v7.5z"/></g><g transform="matrix(.80902 -.58779 .58779 .80902 -240.87 81.294)"><path d="m371.39 480.39v7.5h1.3125v-7.5z"/><path d="m372.7 880.24v-7.5h-1.3125v7.5z"/></g><g transform="matrix(.78801 -.61566 .61566 .78801 -252.02 105.96)"><path d="m371.39 480.39v7.5h1.3125v-7.5z"/><path d="m372.7 880.24v-7.5h-1.3125v7.5z"/></g><g transform="matrix(.74314 -.66913 .66913 .74314 -271.7 156.37)"><path d="m371.39 480.39v7.5h1.3125v-7.5z"/><path d="m372.7 880.24v-7.5h-1.3125v7.5z"/></g><g transform="matrix(.71934 -.69466 .69466 .71934 -280.21 182.06)"><path d="m371.39 480.39v7.5h1.3125v-7.5z"/><path d="m372.7 880.24v-7.5h-1.3125v7.5z"/></g><g transform="matrix(.69466 -.71934 .71934 .69466 -287.82 208.04)"><path d="m371.39 480.39v7.5h1.3125v-7.5z"/><path d="m372.7 880.24v-7.5h-1.3125v7.5z"/></g><g transform="matrix(.66913 -.74314 .74314 .66913 -294.52 234.26)"><path d="m371.39 480.39v7.5h1.3125v-7.5z"/><path d="m372.7 880.24v-7.5h-1.3125v7.5z"/></g><g transform="matrix(.61566 -.78801 .78801 .61566 -305.15 287.33)"><path d="m371.39 480.39v7.5h1.3125v-7.5z"/><path d="m372.7 880.24v-7.5h-1.3125v7.5z"/></g><g transform="matrix(.58779 -.80902 .80902 .58779 -309.07 314.11)"><path d="m371.39 480.39v7.5h1.3125v-7.5z"/><path d="m372.7 880.24v-7.5h-1.3125v7.5z"/></g><g transform="matrix(.55918978 -.82903968 .82903968 .55918978 -312.049811 341.010051)"><path d="m371.39 480.39v7.5h1.3125v-7.5z"/><path d="m372.7 880.24v-7.5h-1.3125v7.5z"/></g><g transform="matrix(.52992 -.84805 .84805 .52992 -314.1 368)"><path d="m371.39 480.39v7.5h1.3125v-7.5z"/><path d="m372.7 880.24v-7.5h-1.3125v7.5z"/></g><g transform="matrix(.46947 -.88295 .88295 .46947 -315.35 422.11)"><path d="m371.39 480.39v7.5h1.3125v-7.5z"/><path d="m372.7 880.24v-7.5h-1.3125v7.5z"/></g><g transform="matrix(.43837 -.89879 .89879 .43837 -314.56 449.16)"><path d="m371.39 480.39v7.5h1.3125v-7.5z"/><path d="m372.7 880.24v-7.5h-1.3125v7.5z"/></g><g transform="matrix(.40674 -.91355 .91355 .40674 -312.83 476.17)"><path d="m371.39 480.39v7.5h1.3125v-7.5z"/><path d="m372.7 880.24v-7.5h-1.3125v7.5z"/></g><g transform="matrix(.37461 -.92718 .92718 .37461 -310.15 503.1)"><path d="m371.39 480.39v7.5h1.3125v-7.5z"/><path d="m372.7 880.24v-7.5h-1.3125v7.5z"/></g><g transform="matrix(.30902 -.95106 .95106 .30902 -301.99 556.61)"><path d="m371.39 480.39v7.5h1.3125v-7.5z"/><path d="m372.7 880.24v-7.5h-1.3125v7.5z"/></g><g transform="matrix(.27564 -.96126 .96126 .27564 -296.51 583.11)"><path d="m371.39 480.39v7.5h1.3125v-7.5z"/><path d="m372.7 880.24v-7.5h-1.3125v7.5z"/></g><g transform="matrix(.24192 -.9703 .9703 .24192 -290.11 609.41)"><path d="m371.39 480.39v7.5h1.3125v-7.5z"/><path d="m372.7 880.24v-7.5h-1.3125v7.5z"/></g><g transform="matrix(.20791 -.97815 .97815 .20791 -282.8 635.47)"><path d="m371.39 480.39v7.5h1.3125v-7.5z"/><path d="m372.7 880.24v-7.5h-1.3125v7.5z"/></g><g transform="matrix(.13917 -.99027 .99027 .13917 -265.48 686.74)"><path d="m371.39 480.39v7.5h1.3125v-7.5z"/><path d="m372.7 880.24v-7.5h-1.3125v7.5z"/></g><g transform="matrix(.10453 -.99452 .99452 .10453 -255.48 711.89)"><path d="m371.39 480.39v7.5h1.3125v-7.5z"/><path d="m372.7 880.24v-7.5h-1.3125v7.5z"/></g><g transform="matrix(.069756 -.99756 .99756 .069756 -244.61 736.68)"><path d="m371.39 480.39v7.5h1.3125v-7.5z"/><path d="m372.7 880.24v-7.5h-1.3125v7.5z"/></g><g transform="matrix(.034899 -.99939 .99939 .034899 -232.89 761.08)"><path d="m371.39 480.39v7.5h1.3125v-7.5z"/><path d="m372.7 880.24v-7.5h-1.3125v7.5z"/></g><g transform="matrix(-.0349 -.99939 .99939 -.0349 -206.92 808.56)"><path d="m371.39 480.39v7.5h1.3125v-7.5z"/><path d="m372.7 880.24v-7.5h-1.3125v7.5z"/></g><g transform="matrix(-.069756 -.99756 .99756 -.069756 -192.71 831.6)"><path d="m371.39 480.39v7.5h1.3125v-7.5z"/><path d="m372.7 880.24v-7.5h-1.3125v7.5z"/></g><g transform="matrix(-.10453 -.99452 .99452 -.10453 -177.7 854.12)"><path d="m371.39 480.39v7.5h1.3125v-7.5z"/><path d="m372.7 880.24v-7.5h-1.3125v7.5z"/></g><g transform="matrix(-.13917 -.99027 .99027 -.13917 -161.92 876.11)"><path d="m371.39 480.39v7.5h1.3125v-7.5z"/><path d="m372.7 880.24v-7.5h-1.3125v7.5z"/></g><g transform="matrix(-.20791 -.97815 .97815 -.20791 -128.1 918.36)"><path d="m371.39 480.39v7.5h1.3125v-7.5z"/><path d="m372.7 880.24v-7.5h-1.3125v7.5z"/></g><g transform="matrix(-.24192 -.9703 .9703 -.24192 -110.1 938.58)"><path d="m371.39 480.39v7.5h1.3125v-7.5z"/><path d="m372.7 880.24v-7.5h-1.3125v7.5z"/></g><g transform="matrix(-.27564 -.96126 .96126 -.27564 -91.413 958.15)"><path d="m371.39 480.39v7.5h1.3125v-7.5z"/><path d="m372.7 880.24v-7.5h-1.3125v7.5z"/></g><g transform="matrix(-.30902 -.95106 .95106 -.30902 -72.052 977.07)"><path d="m371.39 480.39v7.5h1.3125v-7.5z"/><path d="m372.7 880.24v-7.5h-1.3125v7.5z"/></g><g transform="matrix(-.37461 -.92718 .92718 -.37461 -31.409 1012.8)"><path d="m371.39 480.39v7.5h1.3125v-7.5z"/><path d="m372.7 880.24v-7.5h-1.3125v7.5z"/></g><g transform="matrix(-.40674 -.91355 .91355 -.40674 -10.176 1029.6)"><path d="m371.39 480.39v7.5h1.3125v-7.5z"/><path d="m372.7 880.24v-7.5h-1.3125v7.5z"/></g><g transform="matrix(-.43837 -.89879 .89879 -.43837 11.629 1045.6)"><path d="m371.39 480.39v7.5h1.3125v-7.5z"/><path d="m372.7 880.24v-7.5h-1.3125v7.5z"/></g><g transform="matrix(-.46947 -.88295 .88295 -.46947 33.98 1060.9)"><path d="m371.39 480.39v7.5h1.3125v-7.5z"/><path d="m372.7 880.24v-7.5h-1.3125v7.5z"/></g><g transform="matrix(-.52992 -.84805 .84805 -.52992 80.212 1089)"><path d="m371.39 480.39v7.5h1.3125v-7.5z"/><path d="m372.7 880.24v-7.5h-1.3125v7.5z"/></g><g transform="matrix(-.55918972 -.82903972 .82903972 -.55918972 104.040054 1101.899754)"><path d="m371.39 480.39v7.5h1.3125v-7.5z"/><path d="m372.7 880.24v-7.5h-1.3125v7.5z"/></g><g transform="matrix(-.58779 -.80902 .80902 -.58779 128.29 1113.9)"><path d="m371.39 480.39v7.5h1.3125v-7.5z"/><path d="m372.7 880.24v-7.5h-1.3125v7.5z"/></g><g transform="matrix(-.61566 -.78801 .78801 -.61566 152.96 1125)"><path d="m371.39 480.39v7.5h1.3125v-7.5z"/><path d="m372.7 880.24v-7.5h-1.3125v7.5z"/></g><g transform="matrix(-.66913 -.74314 .74314 -.66913 203.37 1144.7)"><path d="m371.39 480.39v7.5h1.3125v-7.5z"/><path d="m372.7 880.24v-7.5h-1.3125v7.5z"/></g><g transform="matrix(-.69466 -.71934 .71934 -.69466 229.06 1153.2)"><path d="m371.39 480.39v7.5h1.3125v-7.5z"/><path d="m372.7 880.24v-7.5h-1.3125v7.5z"/></g><g transform="matrix(-.71934 -.69466 .69466 -.71934 255.04 1160.8)"><path d="m371.39 480.39v7.5h1.3125v-7.5z"/><path d="m372.7 880.24v-7.5h-1.3125v7.5z"/></g><g transform="matrix(-.74314 -.66913 .66913 -.74314 281.26 1167.5)"><path d="m371.39 480.39v7.5h1.3125v-7.5z"/><path d="m372.7 880.24v-7.5h-1.3125v7.5z"/></g><g transform="matrix(-.78801 -.61566 .61566 -.78801 334.33 1178.2)"><path d="m371.39 480.39v7.5h1.3125v-7.5z"/><path d="m372.7 880.24v-7.5h-1.3125v7.5z"/></g><g transform="matrix(-.80902 -.58779 .58779 -.80902 361.11 1182.1)"><path d="m371.39 480.39v7.5h1.3125v-7.5z"/><path d="m372.7 880.24v-7.5h-1.3125v7.5z"/></g><g transform="matrix(-.82903972 -.55918972 .55918972 -.82903972 388.010037 1185.099739)"><path d="m371.39 480.39v7.5h1.3125v-7.5z"/><path d="m372.7 880.24v-7.5h-1.3125v7.5z"/></g><g transform="matrix(-.84805 -.52992 .52992 -.84805 415 1187.1)"><path d="m371.39 480.39v7.5h1.3125v-7.5z"/><path d="m372.7 880.24v-7.5h-1.3125v7.5z"/></g><g transform="matrix(-.88295 -.46947 .46947 -.88295 469.11 1188.3)"><path d="m371.39 480.39v7.5h1.3125v-7.5z"/><path d="m372.7 880.24v-7.5h-1.3125v7.5z"/></g><g transform="matrix(-.89879 -.43837 .43837 -.89879 496.16 1187.6)"><path d="m371.39 480.39v7.5h1.3125v-7.5z"/><path d="m372.7 880.24v-7.5h-1.3125v7.5z"/></g><g transform="matrix(-.91355 -.40674 .40674 -.91355 523.17 1185.8)"><path d="m371.39 480.39v7.5h1.3125v-7.5z"/><path d="m372.7 880.24v-7.5h-1.3125v7.5z"/></g><g transform="matrix(-.92718 -.37461 .37461 -.92718 550.1 1183.1)"><path d="m371.39 480.39v7.5h1.3125v-7.5z"/><path d="m372.7 880.24v-7.5h-1.3125v7.5z"/></g><g transform="matrix(-.95106 -.30902 .30902 -.95106 603.61 1175)"><path d="m371.39 480.39v7.5h1.3125v-7.5z"/><path d="m372.7 880.24v-7.5h-1.3125v7.5z"/></g><g transform="matrix(-.96126 -.27564 .27564 -.96126 630.11 1169.5)"><path d="m371.39 480.39v7.5h1.3125v-7.5z"/><path d="m372.7 880.24v-7.5h-1.3125v7.5z"/></g><g transform="matrix(-.9703 -.24192 .24192 -.9703 656.41 1163.1)"><path d="m371.39 480.39v7.5h1.3125v-7.5z"/><path d="m372.7 880.24v-7.5h-1.3125v7.5z"/></g><g transform="matrix(-.97815 -.20791 .20791 -.97815 682.47 1155.8)"><path d="m371.39 480.39v7.5h1.3125v-7.5z"/><path d="m372.7 880.24v-7.5h-1.3125v7.5z"/></g><g transform="matrix(-.99027 -.13917 .13917 -.99027 733.74 1138.5)"><path d="m371.39 480.39v7.5h1.3125v-7.5z"/><path d="m372.7 880.24v-7.5h-1.3125v7.5z"/></g><g transform="matrix(-.99452 -.10453 .10453 -.99452 758.89 1128.5)"><path d="m371.39 480.39v7.5h1.3125v-7.5z"/><path d="m372.7 880.24v-7.5h-1.3125v7.5z"/></g><g transform="matrix(-.99756 -.069756 .069756 -.99756 783.68 1117.6)"><path d="m371.39 480.39v7.5h1.3125v-7.5z"/><path d="m372.7 880.24v-7.5h-1.3125v7.5z"/></g><g transform="matrix(-.99939 -.034899 .034899 -.99939 808.08 1105.9)"><path d="m371.39 480.39v7.5h1.3125v-7.5z"/><path d="m372.7 880.24v-7.5h-1.3125v7.5z"/></g><path d="m562.42 413c0 56.567-45.857 102.42-102.42 102.42-56.567 0-102.42-45.857-102.42-102.42 0-56.567 45.857-102.42 102.42-102.42 56.567 0 102.42 45.857 102.42 102.42z" fill="none" stroke="#d3d7cf" stroke-linecap="round" stroke-linejoin="round" stroke-width=".85672"/><g fill="#d3d7cf" stroke="#d3d7cf" stroke-width=".85672" transform="translate(87.955 -267.32)"><path d="m200.18 751.5 343.73-142.37"/><path d="m300.86 852.18 142.37-343.73"/><path d="m443.23 852.18-142.37-343.73"/><path d="m543.91 751.5-343.73-142.37"/></g><path d="m459.66 274.68-7.4484 123.47-60.9-53.452 53.616 60.539-123.24 7.4156 123.31 8.0391-53.681 60.605 60.9-53.452 7.4484 123.47 8.0391-123.34 60.539 53.648-53.484-60.9 123.57-8.0719-123.47-7.4484 53.386-60.834-60.539 53.648-8.0391-123.34z" fill="#afc6c5" stroke="#afc6c5" stroke-width="1.2239"/><path d="m459.66 274.68c-2.4828 41.158-4.9656 82.316-7.4484 123.47-20.3-17.817-40.6-35.634-60.9-53.452 17.872 20.18 35.744 40.359 53.616 60.539-41.081 2.4719-82.162 4.9438-123.24 7.4156 41.103 2.6797 82.206 5.3594 123.31 8.0391-17.894 20.202-35.788 40.403-53.681 60.605 20.3-17.817 40.6-35.634 60.9-53.452 2.4828 41.158 4.9656 82.316 7.4484 123.47 2.6797-41.114 5.3594-82.228 8.0391-123.34 20.18 17.883 40.359 35.766 60.539 53.648-17.828-20.3-35.656-40.6-53.484-60.9 41.191-2.6906 82.381-5.3812 123.57-8.0719-41.158-2.4828-82.316-4.9656-123.47-7.4484 17.795-20.278 35.591-40.556 53.386-60.834-20.18 17.883-40.359 35.766-60.539 53.648-2.6797-41.114-5.3594-82.228-8.0391-123.34z" fill="#afc6c5" stroke="#afc6c5" stroke-width="1.2239"/><path d="m353.3 97.534c-.00001 1.0633.29332 1.7233.88 1.98.62332.25667 2.255.385 4.895.385h1.485c3.9233.000002 6.7283-.45833 8.415-1.375 1.6866-.95333 3.2083-2.915 4.565-5.885h1.54l-2.475 9.295h-29.7v-1.045c2.0167-.14667 3.3183-.51334 3.905-1.1.58666-.62333.87999-1.9067.88-3.85v-24.42c-.00001-1.9433-.29334-3.2083-.88-3.795-.58667-.6233-1.8883-1.0083-3.905-1.155v-1.045h29.205l.165 7.865h-1.375c-.47669-2.4566-1.21-4.0333-2.2-4.73-.99003-.69663-3.0434-1.045-6.16-1.045h-7.425c-.73335.000035-1.2283.12837-1.485.385-.22001.22003-.33001.71503-.33 1.485v12.21h8.47c2.3466.000021 3.85-.34831 4.51-1.045.69664-.73331 1.21-2.1266 1.54-4.18h1.265v12.76h-1.265c-.36669-2.2733-.89836-3.7216-1.595-4.345-.69669-.62332-2.1817-.93498-4.455-.935h-8.47z" transform="matrix(0 1 -1 0 680.617 54.0022)"/><path d="m424.13 65.524v1.045c-1.4667.29337-2.475.66004-3.025 1.1-.51338.44003-1.0267 1.375-1.54 2.805-3.0434 8.1767-5.0967 13.787-6.16 16.83-1.0634 3.0433-2.75 8.1217-5.06 15.235h-.825l-8.8-23.265-8.47 23.265h-.825l-10.615-29.535c-.91667-2.5666-1.7417-4.235-2.475-5.005-.69667-.80663-1.76-1.2833-3.19-1.43v-1.045h13.475v1.045c-1.3934.07337-2.3467.23837-2.86.495-.47668.22004-.71501.6417-.715 1.265-.00001.66003.20165 1.5034.605 2.53l7.92 20.68 5.885-15.51-1.815-4.51c-.88002-2.2-1.6317-3.5566-2.255-4.07-.62336-.54996-1.7234-.8433-3.3-.88v-1.045h14.685v1.045c-2.8234.0367-4.235.67837-4.235 1.925-.00003.40337.49497 1.8884 1.485 4.455l7.26 18.755 6.875-18.645c.58662-1.65.87995-3.025.88-4.125-.00005-.7333-.29338-1.265-.88-1.595-.55005-.36663-1.5217-.6233-2.915-.77v-1.045z" transform="matrix(0 -1 1 0 240.157 811.6362)"/><path d="m417.82 66.569c-1.0267.11004-1.7967.23837-2.31.385-.4767.11004-.99003.38504-1.54.825-.51336.44003-.88003 1.1367-1.1 2.09-.18336.9167-.27503 2.1634-.275 3.74v28.93h-.935l-24.31-30.25v21.56c-.00001 2.7867.32999 4.6383.99 5.555.65999.88 2.0533 1.375 4.18 1.485v1.045h-12.925v-1.045c2.2733-.14667 3.7217-.64167 4.345-1.485.66-.88.99-2.7317.99-5.555v-24.255c-1.1-1.2833-1.98-2.1083-2.64-2.475-.62333-.36663-1.5217-.54996-2.695-.55v-1.045h9.405l21.175 26.62v-18.535c-.00003-2.7866-.34836-4.6016-1.045-5.445-.66003-.87996-2.0717-1.4116-4.235-1.595v-1.045h12.925z" opacity=".9" transform="translate(58.897 193.378)"/><path d="m405.01 94.509c-.00002-1.7233-.60502-3.245-1.815-4.565-1.21-1.3567-2.6767-2.5117-4.4-3.465-1.7233-.95332-3.4467-1.925-5.17-2.915-1.6867-1.0266-3.135-2.3283-4.345-3.905-1.21-1.5766-1.815-3.41-1.815-5.5 0-2.7866.935-5.0416 2.805-6.765 1.9067-1.76 4.1433-2.64 6.71-2.64 1.54.000037 3.2083.3117 5.005.935 1.7966.62337 2.8783.93504 3.245.935.95331.000036 1.54-.6233 1.76-1.87h1.155l1.21 11.715h-1.375c-.88002-3.2266-2.2367-5.61-4.07-7.15-1.7967-1.54-3.795-2.31-5.995-2.31-1.6867.000035-3.0617.4767-4.125 1.43-1.0633.95337-1.595 2.1817-1.595 3.685 0 1.4667.62333 2.86 1.87 4.18s3.3183 2.7867 6.215 4.4c3.63 1.9434 6.2516 3.8684 7.865 5.775 1.6133 1.87 2.42 3.9417 2.42 6.215-.00002 2.8233-1.0817 5.2067-3.245 7.15-2.1634 1.9067-4.8217 2.86-7.975 2.86-1.8333 0-3.7033-.31167-5.61-.935-1.87-.62334-3.025-.935-3.465-.935-.40334 0-.75167.18333-1.045.55-.29333.33-.45833.75166-.495 1.265h-1.21l-1.65-11.66h1.265c1.3567 3.3367 2.9333 5.7933 4.73 7.37s3.9233 2.365 6.38 2.365c2.0166 0 3.6483-.56834 4.895-1.705 1.2466-1.1733 1.87-2.6767 1.87-4.51" transform="matrix(-1 0 0 -1 855.827 633.838)"/><g transform="matrix(.70711 .70711 -.70711 .70711 307.78861049 2.79554009)"><path d="m399.93 60.383c-.52269.05602-.91469.12135-1.176.196-.24269.05602-.50402.19602-.784.42-.26135.22402-.44802.57868-.56 1.064-.0933.46668-.14002 1.1013-.14 1.904v14.728h-.476l-12.376-15.4v10.976c-.00001 1.4187.16799 2.3613.504 2.828.33599.448 1.0453.7 2.128.756v.532h-6.58v-.532c1.1573-.07467 1.8947-.32667 2.212-.756.336-.448.504-1.3907.504-2.828v-12.348c-.56-.65332-1.008-1.0733-1.344-1.26-.31734-.18665-.77467-.27998-1.372-.28v-.532h4.788l10.78 13.552v-9.436c-.00002-1.4187-.17735-2.3426-.532-2.772-.33602-.44798-1.0547-.71865-2.156-.812v-.532h6.58z"/><path d="m406 76.147c0 .54134.14933.87733.448 1.008.31733.13067 1.148.196 2.492.196h.756c1.9973.000001 3.4253-.23333 4.284-.7.85866-.48533 1.6333-1.484 2.324-2.996h.784l-1.26 4.732h-15.12v-.532c1.0267-.07467 1.6893-.26133 1.988-.56.29867-.31733.448-.97066.448-1.96v-12.432c0-.98932-.14933-1.6333-.448-1.932-.29866-.31732-.96133-.51332-1.988-.588v-.532h14.868l.084 4.004h-.7c-.24268-1.2507-.61601-2.0533-1.12-2.408-.50401-.35465-1.5493-.53198-3.136-.532h-3.78c-.37334.000017-.62534.06535-.756.196-.112.11202-.168.36402-.168.756v6.216h4.312c1.1947.00001 1.96-.17732 2.296-.532.35466-.37332.61599-1.0827.784-2.128h.644v6.496h-.644c-.18668-1.1573-.45734-1.8947-.812-2.212-.35467-.31732-1.1107-.47599-2.268-.476h-4.312z"/></g><g transform="matrix(-.70711 -.70711 .70711 -.70711 613.5931793 824.0267301)"><path d="m389.31 74.607c-.00001-.87733-.30801-1.652-.924-2.324-.61601-.69066-1.3627-1.2787-2.24-1.764-.87734-.48532-1.7547-.97999-2.632-1.484-.85867-.52266-1.596-1.1853-2.212-1.988-.616-.80266-.924-1.736-.924-2.8 0-1.4187.476-2.5666 1.428-3.444.97066-.89598 2.1093-1.344 3.416-1.344.78399.000019 1.6333.15868 2.548.476.91466.31735 1.4653.47602 1.652.476.48532.000018.78399-.31732.896-.952h.588l.616 5.964h-.7c-.44801-1.6427-1.1387-2.856-2.072-3.64-.91468-.78398-1.932-1.176-3.052-1.176-.85867.000017-1.5587.24268-2.1.728-.54134.48535-.81201 1.1107-.812 1.876-.00001.74668.31733 1.456.952 2.128.63466.67201 1.6893 1.4187 3.164 2.24 1.848.98934 3.1826 1.9693 4.004 2.94.82132.95201 1.232 2.0067 1.232 3.164-.00001 1.4373-.55068 2.6507-1.652 3.64-1.1014.97067-2.4547 1.456-4.06 1.456-.93334-.000001-1.8853-.15867-2.856-.476-.95201-.31733-1.54-.476-1.764-.476-.20534 0-.38267.09333-.532.28-.14934.168-.23334.38267-.252.644h-.616l-.84-5.936h.644c.69066 1.6987 1.4933 2.9493 2.408 3.752.91466.80267 1.9973 1.204 3.248 1.204 1.0267 0 1.8573-.28933 2.492-.868.63465-.59733.95199-1.3627.952-2.296"/><path d="m418.92 59.851v.532c-.74669.14935-1.26.33602-1.54.56-.26136.22402-.52269.70002-.784 1.428-1.5494 4.1627-2.5947 7.0187-3.136 8.568-.54135 1.5493-1.4 4.1347-2.576 7.756h-.42l-4.48-11.844-4.312 11.844h-.42l-5.404-15.036c-.46667-1.3067-.88667-2.156-1.26-2.548-.35467-.41065-.896-.65332-1.624-.728v-.532h6.86v.532c-.70934.03735-1.1947.12135-1.456.252-.24267.11202-.36401.32668-.364.644-.00001.33602.10266.76535.308 1.288l4.032 10.528 2.996-7.896-.924-2.296c-.44801-1.12-.83068-1.8106-1.148-2.072-.31734-.27998-.87734-.42932-1.68-.448v-.532h7.476v.532c-1.4374.01868-2.156.34535-2.156.98-.00002.20535.25198.96135.756 2.268l3.696 9.548 3.5-9.492c.29864-.83998.44798-1.54.448-2.1-.00002-.37332-.14936-.64398-.448-.812-.28002-.18665-.77469-.31732-1.484-.392v-.532z"/></g><g transform="matrix(-.70711 .70711 -.70711 -.70711 870.83133991 261.01629049)"><path d="m393.96 74.607c-.00001-.87733-.30801-1.652-.924-2.324-.61601-.69066-1.3627-1.2787-2.24-1.764-.87734-.48532-1.7547-.97999-2.632-1.484-.85867-.52266-1.596-1.1853-2.212-1.988-.61601-.80266-.92401-1.736-.924-2.8-.00001-1.4187.47599-2.5666 1.428-3.444.97066-.89598 2.1093-1.344 3.416-1.344.78399.000019 1.6333.15868 2.548.476.91465.31735 1.4653.47602 1.652.476.48532.000018.78398-.31732.896-.952h.588l.616 5.964h-.7c-.44802-1.6427-1.1387-2.856-2.072-3.64-.91468-.78398-1.932-1.176-3.052-1.176-.85868.000017-1.5587.24268-2.1.728-.54134.48535-.81201 1.1107-.812 1.876-.00001.74668.31732 1.456.952 2.128.63466.67201 1.6893 1.4187 3.164 2.24 1.848.98934 3.1826 1.9693 4.004 2.94.82132.95201 1.232 2.0067 1.232 3.164-.00002 1.4373-.55068 2.6507-1.652 3.64-1.1014.97067-2.4547 1.456-4.06 1.456-.93334-.000001-1.8853-.15867-2.856-.476-.95201-.31733-1.54-.476-1.764-.476-.20534 0-.38267.09333-.532.28-.14934.168-.23334.38267-.252.644h-.616l-.84-5.936h.644c.69066 1.6987 1.4933 2.9493 2.408 3.752.91466.80267 1.9973 1.204 3.248 1.204 1.0266 0 1.8573-.28933 2.492-.868.63465-.59733.95199-1.3627.952-2.296"/><path d="m403.1 76.147c-.00001.54134.14932.87733.448 1.008.31732.13067 1.148.196 2.492.196h.756c1.9973.000001 3.4253-.23333 4.284-.7.85865-.48533 1.6333-1.484 2.324-2.996h.784l-1.26 4.732h-15.12v-.532c1.0267-.07467 1.6893-.26133 1.988-.56.29866-.31733.44799-.97066.448-1.96v-12.432c-.00001-.98932-.14934-1.6333-.448-1.932-.29867-.31732-.96134-.51332-1.988-.588v-.532h14.868l.084 4.004h-.7c-.24268-1.2507-.61602-2.0533-1.12-2.408-.50402-.35465-1.5494-.53198-3.136-.532h-3.78c-.37334.000017-.62534.06535-.756.196-.11201.11202-.16801.36402-.168.756v6.216h4.312c1.1946.00001 1.96-.17732 2.296-.532.35465-.37332.61598-1.0827.784-2.128h.644v6.496h-.644c-.18668-1.1573-.45735-1.8947-.812-2.212-.35468-.31732-1.1107-.47599-2.268-.476h-4.312z"/></g><g transform="matrix(.70711 -.70711 .70711 .70711 49.6001499 566.8208593)"><path d="m395.28 60.383c-.52268.05602-.91468.12135-1.176.196-.24268.05602-.50402.19602-.784.42-.26135.22402-.44802.57868-.56 1.064-.0933.46668-.14002 1.1013-.14 1.904v14.728h-.476l-12.376-15.4v10.976c0 1.4187.168 2.3613.504 2.828.336.448 1.0453.7 2.128.756v.532h-6.58v-.532c1.1573-.07467 1.8947-.32667 2.212-.756.336-.448.504-1.3907.504-2.828v-12.348c-.56-.65332-1.008-1.0733-1.344-1.26-.31733-.18665-.77467-.27998-1.372-.28v-.532h4.788l10.78 13.552v-9.436c-.00001-1.4187-.17735-2.3426-.532-2.772-.33601-.44798-1.0547-.71865-2.156-.812v-.532h6.58z"/><path d="m421.82 59.851v.532c-.7467.14935-1.26.33602-1.54.56-.26136.22402-.52269.70002-.784 1.428-1.5494 4.1627-2.5947 7.0187-3.136 8.568-.54136 1.5493-1.4 4.1347-2.576 7.756h-.42l-4.48-11.844-4.312 11.844h-.42l-5.404-15.036c-.46667-1.3067-.88667-2.156-1.26-2.548-.35467-.41065-.896-.65332-1.624-.728v-.532h6.86v.532c-.70934.03735-1.1947.12135-1.456.252-.24268.11202-.36401.32668-.364.644-.00001.33602.10266.76535.308 1.288l4.032 10.528 2.996-7.896-.924-2.296c-.44801-1.12-.83068-1.8106-1.148-2.072-.31735-.27998-.87735-.42932-1.68-.448v-.532h7.476v.532c-1.4374.01868-2.156.34535-2.156.98-.00002.20535.25198.96135.756 2.268l3.696 9.548 3.5-9.492c.29864-.83998.44797-1.54.448-2.1-.00003-.37332-.14936-.64398-.448-.812-.28003-.18665-.77469-.31732-1.484-.392v-.532z"/></g></g></svg>