<svg height="86.180725mm" viewBox="0 0 37.052129 305.36453" width="10.456578mm" xmlns="http://www.w3.org/2000/svg" xmlns:xlink="http://www.w3.org/1999/xlink"><linearGradient id="a"><stop offset="0" stop-color="#f2f2f2"/><stop offset="1" stop-color="#f2f2f2" stop-opacity="0"/></linearGradient><linearGradient id="b" gradientUnits="userSpaceOnUse" x1="383.95999" x2="372.04999" y1="365.79001" y2="231.08"><stop offset="0" stop-color="#8b0000"/><stop offset="1" stop-color="#a40000" stop-opacity="0"/></linearGradient><linearGradient id="c" gradientUnits="userSpaceOnUse" x1="382.95001" x2="372.03" y1="372.06" y2="523.40002"><stop offset="0" stop-color="#173560"/><stop offset="1" stop-color="#204a87" stop-opacity="0"/></linearGradient><linearGradient id="d" gradientTransform="matrix(1 0 0 .92286 0 14.363)" gradientUnits="userSpaceOnUse" x1="372.10999" x2="372.10999" xlink:href="#a" y1="372.29999" y2="223.31"/><linearGradient id="e" gradientTransform="matrix(1 0 0 -.91048 0 725.31)" gradientUnits="userSpaceOnUse" x1="372.10999" x2="372.10999" xlink:href="#a" y1="372.29999" y2="223.31"/><linearGradient id="f" gradientUnits="userSpaceOnUse" x1="363.45001" x2="386.54999" y1="362.60999" y2="386.54999"><stop offset="0" stop-color="#eeeeec"/><stop offset="1" stop-color="#d3d7cf" stop-opacity="0"/></linearGradient><linearGradient id="g"><stop offset="0" stop-color="#888a85"/><stop offset="1" stop-color="#d3d7cf"/></linearGradient><linearGradient id="h" gradientUnits="userSpaceOnUse" x1="286.01999" x2="307.95999" xlink:href="#g" y1="335.03" y2="370.92999"/><linearGradient id="i" gradientTransform="matrix(.84331 -.53743 .53743 .84331 -141.65 258.25)" gradientUnits="userSpaceOnUse" x1="372.04999" x2="372.04999" y1="372.04999" y2="372.04999"><stop offset="0" stop-color="#888a85"/><stop offset="1" stop-color="#babdb6"/></linearGradient><linearGradient id="j" gradientTransform="matrix(.53743 .84331 -.84331 .53743 485.84 -141.65)" gradientUnits="userSpaceOnUse" x1="372.04999" x2="372.04999" xlink:href="#g" y1="372.04999" y2="372.04999"/><g transform="matrix(.81707326828 .00055599162 -.00055599162 .81707326828 -285.25674370445 -151.51415096963)"><path d="m371.98 186.03-11.25 167.34c-6.3067 3.8134-10.5 10.74-10.5 18.656h43.594c0-7.9414-4.2441-14.882-10.594-18.688l-11.25-167.31z" fill="#c00" stroke="#a40000" stroke-linecap="round" stroke-linejoin="round" stroke-width="1.7134"/><path d="m372.02 558.06-11.25-167.34c-6.3067-3.8134-10.5-10.74-10.5-18.656h43.594c0 7.9414-4.2441 14.882-10.594 18.688l-11.25 167.31z" fill="#3465a4" stroke="#204a87" stroke-linecap="round" stroke-linejoin="round" stroke-width="1.7134"/><path d="m372.03 186.97v185.06h21.782c0-7.9414-4.2441-14.882-10.594-18.688l-11.188-166.38z" fill="url(#b)"/><path d="m372.03 372.06v186l11.25-167.31c6.3497-3.8056 10.594-10.746 10.594-18.688h-21.844z" fill="url(#c)"/><path d="m371.94 186.18.35355 171.3" fill="#f2f2f2" stroke="url(#d)" stroke-width="1.2239"/><path d="m371.94 555.8.35355-169" fill="#f2f2f2" stroke="url(#e)" stroke-width="1.2239"/><path d="m372.05 357.55c-8.0081 0-14.5 6.4919-14.5 14.5s6.4919 14.5 14.5 14.5 14.5-6.4919 14.5-14.5-6.4919-14.5-14.5-14.5zm0 2.125c6.8366 0 12.406 5.5384 12.406 12.375s-5.5697 12.406-12.406 12.406c-6.8366 0-12.375-5.5697-12.375-12.406 0-6.8366 5.5384-12.375 12.375-12.375z" fill="url(#f)"/><ellipse cx="300.87" cy="359.06" fill="url(#h)" rx="14.849" ry="24.027" transform="matrix(.83362 0 0 .51521 121.23 187.06)"/><path d="m366.77 363.77c.33036-.21053.76579-.11406.97632.21629l5.3028 7.4162 4.4828 7.9387c.21053.33036.11408.7658-.21628.97633s-.7658.11407-.97633-.21628l-5.4146-7.3449-4.371-8.01c-.21053-.33035-.11407-.76579.21629-.97633z" fill="url(#i)"/><path d="m380.32 366.77c.21053.33036.11407.76579-.21629.97633l-7.4874 5.1909-7.8675 4.5946c-.33035.21053-.76579.11408-.97633-.21628-.21053-.33036-.11407-.7658.21628-.97633l7.3924-5.34 7.9625-4.4456c.33035-.21053.7658-.11407.97633.21629z" fill="url(#j)"/></g></svg>